# Made in Blockbench 4.12.6
mtllib barn.mtl

o building
v 1.37740375 0.39938687500000003 2.125
v 1.37740375 0.39938687500000003 -2.125
v 1.37740375 -0.9427181250000001 2.125
v 1.37740375 -0.9427181250000001 -2.125
v -1.37259625 0.39938687500000003 2.125
v -1.37259625 0.39938687500000003 -2.125
v -1.37259625 -0.9427181250000001 2.125
v -1.37259625 -0.9427181250000001 -2.125
v 1.37740375 0.45530812499999995 2.125
v 1.37740375 0.45530812499999995 -2.125
v -1.37259625 0.45530812499999995 2.125
v -1.37259625 0.45530812499999995 -2.125
v 1.1024037500000001 0.9026768749999998 2.125
v 1.1024037500000001 0.9026768749999998 -2.125
v -1.09759625 0.9026768749999998 2.125
v -1.09759625 0.9026768749999998 -2.125
v 0.49740375000000014 1.182281875 2.125
v 0.49740375000000014 1.182281875 -2.125
v -0.49259624999999996 1.182281875 2.125
v -0.49259624999999996 1.182281875 -2.125
v 1.37740375 0.39938687500000003 2.1875
v 1.37740375 0.39938687500000003 -2.1875
v -1.37259625 0.39938687500000003 -2.1875
v -1.43509625 0.45530812499999995 2.125
v -1.43509625 0.39938687500000003 2.125
v -1.43509625 0.39938687500000003 2.1875
v -1.37259625 0.39938687500000003 2.1875
v -1.43509625 0.39938687500000003 -2.1875
v -1.43509625 0.39938687500000003 -2.125
v -1.43509625 0.45530812499999995 -2.125
v 1.43990375 0.39938687500000003 -2.1875
v 1.43990375 0.45530812499999995 -2.125
v 1.43990375 0.39938687500000003 -2.125
v 1.43990375 0.39938687500000003 2.125
v 1.43990375 0.39938687500000003 2.1875
v 0.5105137500000001 1.24189875 2.125
v -0.5057062499999999 1.24189875 -2.125
v 0.5105137500000001 1.24189875 -2.125
v 1.14213625 0.9474087499999999 2.125
v 1.14213625 0.9474087499999999 -2.125
v 1.43064875 0.4880381249999999 2.125
v 1.43064875 0.4880381249999999 -2.125
v -0.5057062499999999 1.24189875 2.125
v -1.13732875 0.9474087499999999 -2.125
v -1.13732875 0.9474087499999999 2.125
v -1.42584125 0.4880381249999999 -2.125
v -1.42584125 0.4880381249999999 2.125
v 1.43990375 0.45530812499999995 2.125
v -1.43509625 0.45530812499999995 2.1875
v -1.37259625 0.45530812499999995 2.1875
v -1.42584125 0.4880381249999999 2.1875
v -1.43509625 0.45530812499999995 2.1875
v -1.37259625 0.45530812499999995 2.1875
v 0.5105137500000001 1.24189875 2.1875
v -0.5057062499999999 1.24189875 2.1875
v -0.49259624999999996 1.182281875 2.1875
v 0.49740375000000014 1.182281875 2.1875
v -1.13732875 0.9474087499999999 2.1875
v -1.09759625 0.9026768749999998 2.1875
v 1.14213625 0.9474087499999999 2.1875
v 1.1024037500000001 0.9026768749999998 2.1875
v 1.43064875 0.4880381249999999 2.1875
v 1.37740375 0.45530812499999995 2.1875
v 1.43990375 0.45530812499999995 2.1875
v -1.37259625 0.45530812499999995 -2.1875
v -1.43509625 0.45530812499999995 -2.1875
v -1.42584125 0.4880381249999999 -2.1875
v -1.13732875 0.9474087499999999 -2.1875
v -1.09759625 0.9026768749999998 -2.1875
v -0.5057062499999999 1.24189875 -2.1875
v -0.49259624999999996 1.182281875 -2.1875
v 0.5105137500000001 1.24189875 -2.1875
v 0.49740375000000014 1.182281875 -2.1875
v 1.37740375 0.45530812499999995 -2.1875
v 1.43064875 0.4880381249999999 -2.1875
v 1.43990375 0.45530812499999995 -2.1875
v 1.14213625 0.9474087499999999 -2.1875
v 1.1024037500000001 0.9026768749999998 -2.1875
vt 0.59765625 0.72265625
vt 0.33203125 0.72265625
vt 0.33203125 0.640625
vt 0.59765625 0.640625
vt 0.59765625 0.5546875
vt 0.59765625 0.63671875
vt 0.33203125 0.63671875
vt 0.33203125 0.5546875
vt 0.22019609375 0.453125
vt 0.28371015624999996 0.453125
vt 0.28371015624999996 0.71875
vt 0.22019609375 0.71875
vt 0.171875 0.45703125
vt 0.171875 0.72265625
vt 0 0.72265625
vt 0 0.45703125
vt 0.5390625 0.91796875
vt 0.5390625 1
vt 0.3671875 1
vt 0.3671875 0.91796875
vt 0.5390625 0.9140625
vt 0.3671875 0.9140625
vt 0.3671875 0.83203125
vt 0.5390625 0.83203125
vt 0.69140625 0.484375
vt 0.51953125 0.484375
vt 0.51953125 0.480880078125
vt 0.69140625 0.480880078125
vt 0.74609375 0.55078125
vt 0.48046875 0.55078125
vt 0.48046875 0.547286328125
vt 0.74609375 0.547286328125
vt 0.69140625 0.4765625
vt 0.51953125 0.4765625
vt 0.51953125 0.473067578125
vt 0.69140625 0.473067578125
vt 0.76171875 0.54296875
vt 0.49609375 0.54296875
vt 0.49609375 0.539473828125
vt 0.76171875 0.539473828125
vt 0.490625 0.48252460937499997
vt 0.353125 0.48252460937499997
vt 0.3359375 0.45456406250000003
vt 0.5078125 0.45456406250000003
vt 0.63671875 0.78515625
vt 0.37109375 0.78515625
vt 0.37109375 0.75125234375
vt 0.63671875 0.75125234375
vt 0.66640625 0.517680859375
vt 0.52890625 0.517680859375
vt 0.51171875 0.48972031250000003
vt 0.68359375 0.48972031250000003
vt 0.63671875 0.828125
vt 0.37109375 0.828125
vt 0.37109375 0.79422109375
vt 0.63671875 0.79422109375
vt 0.4528125 0.5
vt 0.3909375 0.5
vt 0.353125 0.48252460937499997
vt 0.490625 0.48252460937499997
vt 0.28371015625 0.71875
vt 0.28371015625 0.453125
vt 0.32726640625000003 0.453125
vt 0.32726640625000003 0.71875
vt 0.6285937500000001 0.53515625
vt 0.5667187499999999 0.53515625
vt 0.52890625 0.517680859375
vt 0.66640625 0.517680859375
vt 0.22019609375 0.453125
vt 0.22019609375 0.71875
vt 0.17663984374999997 0.71875
vt 0.17663984375 0.453125
vt 0.00390625 0.7265625
vt 0.17578125 0.7265625
vt 0.17578125 0.73046875
vt 0.00390625 0.73046875
vt 0.359375 1
vt 0.1875 1
vt 0.1875 0.99609375
vt 0.359375 0.99609375
vt 0.4765625 0.55078125
vt 0.4765625 0.547286328125
vt 0.48046875 0.547286328125
vt 0.48046875 0.55078125
vt 0.17578125 1
vt 0.00390625 1
vt 0.00390625 0.99609375
vt 0.17578125 0.99609375
vt 0.75 0.547286328125
vt 0.75 0.55078125
vt 0.74609375 0.55078125
vt 0.74609375 0.547286328125
vt 0.1875 0.7265625
vt 0.359375 0.7265625
vt 0.359375 0.73046875
vt 0.1875 0.73046875
vt 0.4921875 0.54296875
vt 0.4921875 0.539473828125
vt 0.49609375 0.539473828125
vt 0.49609375 0.54296875
vt 0 0.99609375
vt 0 0.73046875
vt 0.00390625 0.73046875
vt 0.00390625 0.99609375
vt 0.18359375 0.99609375
vt 0.18359375 0.73046875
vt 0.1875 0.73046875
vt 0.1875 0.99609375
vt 0.515625 0.484375
vt 0.515625 0.480880078125
vt 0.51953125 0.480880078125
vt 0.51953125 0.484375
vt 0.765625 0.539473828125
vt 0.765625 0.54296875
vt 0.76171875 0.54296875
vt 0.76171875 0.539473828125
vt 0.1875 1
vt 0.18359375 1
vt 0.18359375 0.99609375
vt 0.1875 0.99609375
vt 0 0.7265625
vt 0.00390625 0.7265625
vt 0.00390625 0.73046875
vt 0 0.73046875
vt 0.6953125 0.473067578125
vt 0.6953125 0.4765625
vt 0.69140625 0.4765625
vt 0.69140625 0.473067578125
vt 0.18359375 0.73046875
vt 0.18359375 0.7265625
vt 0.1875 0.7265625
vt 0.1875 0.73046875
vt 0 1
vt 0 0.99609375
vt 0.00390625 0.99609375
vt 0.00390625 1
vt 0.515625 0.4765625
vt 0.515625 0.473067578125
vt 0.51953125 0.473067578125
vt 0.51953125 0.4765625
vt 0.1796875 0.99609375
vt 0.1796875 1
vt 0.17578125 1
vt 0.17578125 0.99609375
vt 0.36328125 0.7265625
vt 0.36328125 0.73046875
vt 0.359375 0.73046875
vt 0.359375 0.7265625
vt 0.36328125 0.73046875
vt 0.36328125 0.99609375
vt 0.359375 0.99609375
vt 0.359375 0.73046875
vt 0.6953125 0.480880078125
vt 0.6953125 0.484375
vt 0.69140625 0.484375
vt 0.69140625 0.480880078125
vt 0.36328125 0.99609375
vt 0.36328125 1
vt 0.359375 1
vt 0.359375 0.99609375
vt 0.1796875 0.7265625
vt 0.1796875 0.73046875
vt 0.17578125 0.73046875
vt 0.17578125 0.7265625
vt 0.45363203125 0.55078125
vt 0.39011796875 0.55078125
vt 0.3909375 0.547055078125
vt 0.4528125 0.547055078125
vt 0.45363203125 0.5234375
vt 0.39011796875 0.5234375
vt 0.3909375 0.519711328125
vt 0.4528125 0.519711328125
vt 0.49310820312500003 0.532375390625
vt 0.45363203125 0.55078125
vt 0.4528125 0.547055078125
vt 0.490625 0.5295796875000001
vt 0.39011796875 0.5234375
vt 0.35064179687499997 0.505031640625
vt 0.353125 0.5022359375000001
vt 0.3909375 0.519711328125
vt 0.511140234375 0.50366484375
vt 0.49310820312500003 0.532375390625
vt 0.490625 0.5295796875000001
vt 0.5078125 0.501619140625
vt 0.35064179687499997 0.505031640625
vt 0.332609765625 0.47632109375
vt 0.3359375 0.474275390625
vt 0.353125 0.5022359375000001
vt 0.49310820312500003 0.505031640625
vt 0.45363203125 0.5234375
vt 0.4528125 0.519711328125
vt 0.490625 0.5022359375000001
vt 0.1171875 0.87109375
vt 0.1171875 0.875
vt 0.11328125 0.875
vt 0.11328125 0.87109375
vt 0.1328125 0.96875
vt 0.1328125 0.97265625
vt 0.12890625 0.97265625
vt 0.12890625 0.96875
vt 0.511140234375 0.47632109375
vt 0.49310820312500003 0.505031640625
vt 0.490625 0.5022359375000001
vt 0.5078125 0.474275390625
vt 0.6328125 0.734375
vt 0.3671875 0.734375
vt 0.3671875 0.73046875
vt 0.6328125 0.73046875
vt 0.350641796875 0.532375390625
vt 0.332609765625 0.50366484375
vt 0.3359375 0.501619140625
vt 0.353125 0.5295796875000001
vt 0.1796875 0.73046875
vt 0.1796875 0.99609375
vt 0.17578125 0.99609375
vt 0.17578125 0.73046875
vt 0.6328125 0.7421875
vt 0.3671875 0.7421875
vt 0.3671875 0.73828125
vt 0.6328125 0.73828125
vt 0.51171875 0.501619140625
vt 0.511140234375 0.50366484375
vt 0.5078125 0.501619140625
vt 0.3359375 0.474275390625
vt 0.332609765625 0.47632109375
vt 0.33203125 0.474275390625
vt 0.63671875 0.75125234375
vt 0.37109375 0.75125234375
vt 0.37109375 0.7491265625
vt 0.63671875 0.7491265625
vt 0.5078125 0.474275390625
vt 0.51171875 0.474275390625
vt 0.511140234375 0.47632109375
vt 0.63671875 0.79422109375
vt 0.37109375 0.79422109375
vt 0.37109375 0.7920953125
vt 0.63671875 0.7920953125
vt 0.33203125 0.501619140625
vt 0.3359375 0.501619140625
vt 0.332609765625 0.50366484375
vt 0.1328125 0.96484375
vt 0.12890625 0.96484375
vt 0.12890625 0.9609375
vt 0.1328125 0.9609375
vt 0.640625 0.7920953125
vt 0.640625 0.79422109375
vt 0.63671875 0.79422109375
vt 0.63671875 0.7920953125
vt 0.640625 0.79422109375
vt 0.640625 0.828125
vt 0.63671875 0.828125
vt 0.63671875 0.79422109375
vt 0.11328125 0.9453125
vt 0.11328125 0.9140625
vt 0.1171875 0.9140625
vt 0.1171875 0.9453125
vt 0.12890625 0.93359375
vt 0.12890625 0.9296875
vt 0.1328125 0.9296875
vt 0.1328125 0.93359375
vt 0.39011796875 0.55078125
vt 0.350641796875 0.532375390625
vt 0.353125 0.5295796875000001
vt 0.3909375 0.547055078125
vt 0.22019609375 0.44921875
vt 0.28371015624999996 0.44921875
vt 0.28371015624999996 0.453125
vt 0.22019609375 0.453125
vt 0.11687500000000002 0.8593750000000001
vt 0.055000000000000014 0.8593750000000001
vt 0.055000000000000014 0.8554687500000001
vt 0.11687500000000002 0.8554687500000001
vt 0.17663984375 0.44921875
vt 0.22019609375 0.44921875
vt 0.22019609375 0.453125
vt 0.17663984375 0.453125
vt 0.1328125 0.921875
vt 0.1328125 0.92578125
vt 0.12890625 0.92578125
vt 0.12890625 0.921875
vt 0.05500000000000001 0.8593750000000001
vt 0.01334453125 0.859375
vt 0.013344531250000007 0.85546875
vt 0.055000000000000014 0.8554687500000001
vt 0.28371015625 0.44921875
vt 0.32726640625000003 0.4492187500000002
vt 0.32726640625000003 0.4531250000000002
vt 0.28371015624999996 0.453125
vt 0.15853046875 0.8593750000000001
vt 0.11687500000000002 0.8593750000000001
vt 0.11687500000000002 0.8554687500000001
vt 0.15853046875 0.8554687500000001
vt 0.3671875 0.78515625
vt 0.3671875 0.75125234375
vt 0.37109375 0.75125234375
vt 0.37109375 0.78515625
vt 0.125 0.95703125
vt 0.125 0.98828125
vt 0.12109375 0.98828125
vt 0.12109375 0.95703125
vt 0.3671875 0.75125234375
vt 0.3671875 0.7491265625
vt 0.37109375 0.7491265625
vt 0.37109375 0.75125234375
vt 0.1328125 0.95703125
vt 0.12890625 0.95703125
vt 0.12890625 0.953125
vt 0.1328125 0.953125
vt 0.12890625 0.9453125
vt 0.1328125 0.9453125
vt 0.1328125 0.94921875
vt 0.12890625 0.94921875
vt 0.3671875 0.79422109375
vt 0.3671875 0.7920953125
vt 0.37109375 0.7920953125
vt 0.37109375 0.79422109375
vt 0.3671875 0.828125
vt 0.3671875 0.79422109375
vt 0.37109375 0.79422109375
vt 0.37109375 0.828125
vt 0.1171875 0.87890625
vt 0.1171875 0.91015625
vt 0.11328125 0.91015625
vt 0.11328125 0.87890625
vt 0.22019609375 0.72265625
vt 0.17663984374999997 0.7226562499999998
vt 0.17663984375 0.7187499999999998
vt 0.22019609375 0.71875
vt 0.01334453125 0.8476562500000001
vt 0.05500000000000001 0.84765625
vt 0.055000000000000014 0.8515625
vt 0.013344531250000007 0.8515625000000001
vt 0.28371015624999996 0.72265625
vt 0.22019609375 0.72265625
vt 0.22019609375 0.71875
vt 0.28371015624999996 0.71875
vt 0.055000000000000014 0.84765625
vt 0.11687500000000002 0.84765625
vt 0.11687500000000002 0.8515625
vt 0.055000000000000014 0.8515625
vt 0.640625 0.7491265625
vt 0.640625 0.75125234375
vt 0.63671875 0.75125234375
vt 0.63671875 0.7491265625
vt 0.12890625 0.9375
vt 0.1328125 0.9375
vt 0.1328125 0.94140625
vt 0.12890625 0.94140625
vt 0.640625 0.75125234375
vt 0.640625 0.78515625
vt 0.63671875 0.78515625
vt 0.63671875 0.75125234375
vt 0.12109375 0.953125
vt 0.12109375 0.921875
vt 0.125 0.921875
vt 0.125 0.953125
vt 0.32726640625000003 0.72265625
vt 0.28371015624999996 0.72265625
vt 0.28371015624999996 0.71875
vt 0.32726640625000003 0.71875
vt 0.11687500000000002 0.84765625
vt 0.15853046875 0.84765625
vt 0.15853046875 0.8515625
vt 0.11687500000000002 0.8515625
vn 1 0 0
vn -1 0 0
vn 0 1 0
vn 0 -1 0
vn 0 0 1
vn 0 0 -1
vn 0 0 1
vn 1 0 0
vn 0 0 -1
vn -1 0 0
vn 0 0 1
vn 0.8468314714731141 0.5318613154974521 0
vn 0 0 -1
vn -0.8468314714731141 0.5318613154974523 0
vn 0 0 1
vn 0.4225706338225815 0.906329994776065 0
vn 0 0 -1
vn -0.42257063382258137 0.9063299947760649 0
vn 0 1 0
vn 0 -1 0
vn 1 0 0
vn 0 1 0
vn 1 0 0
vn 0 -1 0
vn -1 0 0
vn 0 1 0
vn 0 -1 0
vn 0 0 1
vn -1 0 0
vn 0 -1 0
vn 0 1 0
vn 0 0 -1
vn 0 -1 0
vn 0 1 0
vn 0 0 -1
vn 0 1 0
vn 0 -1 0
vn 0 -1 0
vn 0 0 1
vn 0 -1 0
vn 0 1 0
vn 0 0 1
vn 0 0 -1
vn 0 0 1
vn 0 0 -1
vn 0 0 1
vn 0 0 -1
vn 0 0 -1
vn -1 0 0
vn 0 0 -1
vn 0 0 -1
vn -0.5236777930169588 -0.8519164096910491 0
vn 0 0 1
vn 0 1 0
vn 0.5236777930169589 -0.8519164096910491 0
vn 0 0 1
vn 0 0 -1
vn 0.9622692487760532 0.2720990497226522 0
vn 0 0 -1
vn -0.9622692487760532 0.2720990497226518 0
vn 0 0 1
vn 0 -1 0
vn -0.9622692487760535 0.2720990497226518 0
vn -0.8468314714731141 0.5318613154974523 0
vn 0.8519164765052001 -0.5236776843240171 0
vn 0.7476513347984508 0.6640914707885465 0
vn 0 0 1
vn 0 1 0
vn 0 -1 0
vn -0.4225706338225815 0.906329994776065 0
vn -0.7476513347984508 -0.6640914707885465 0
vn 0.4195210165474663 -0.9077456233301158 0
vn 0.4225706338225816 0.906329994776065 0
vn -0.4195210165474663 -0.9077456233301158 0
vn 0.8468314714731141 0.5318613154974522 0
vn -0.8519164765052003 -0.523677684324017 0
vn 0.9622692487760534 0.2720990497226522 0
vn 0 -1 0
vn 0 -1 0
vn -0.9622692487760535 0.2720990497226518 0
vn -0.8468314714731141 0.5318613154974523 0
vn 0.8519164765052001 -0.5236776843240171 0
vn -0.4225706338225815 0.906329994776065 0
vn 0.4195210165474663 -0.9077456233301158 0
vn 0 1 0
vn 0 -1 0
vn 0.9622692487760534 0.2720990497226522 0
vn 0 -1 0
vn 0.8468314714731141 0.5318613154974522 0
vn -0.8519164765052003 -0.523677684324017 0
vn 0.4225706338225816 0.906329994776065 0
vn -0.4195210165474663 -0.9077456233301158 0
usemtl m_b044ecb8-38bd-1bf9-470b-6a8d9d41e6b4
f 2/1/1 1/2/1 3/3/1 4/4/1
f 7/5/2 5/6/2 6/7/2 8/8/2
f 43/9/3 36/10/3 38/11/3 37/12/3
f 4/13/4 3/14/4 7/15/4 8/16/4
f 3/17/5 1/18/5 5/19/5 7/20/5
f 6/21/6 2/22/6 4/23/6 8/24/6
f 63/25/7 53/26/7 27/27/7 21/28/7
f 32/29/8 48/30/8 34/31/8 33/32/8
f 65/33/9 74/34/9 22/35/9 23/36/9
f 24/37/10 30/38/10 29/39/10 25/40/10
f 13/41/11 15/42/11 11/43/11 9/44/11
f 40/45/12 39/46/12 41/47/12 42/48/12
f 16/49/13 14/50/13 10/51/13 12/52/13
f 45/53/14 44/54/14 46/55/14 47/56/14
f 17/57/15 19/58/15 15/59/15 13/60/15
f 38/61/16 36/62/16 39/63/16 40/64/16
f 20/65/17 18/66/17 14/67/17 16/68/17
f 43/69/18 37/70/18 44/71/18 45/72/18
f 53/73/19 63/74/19 9/75/19 11/76/19
f 21/77/20 27/78/20 5/79/20 1/80/20
f 64/81/21 35/82/21 34/83/21 48/84/21
f 74/85/22 65/86/22 12/87/22 10/88/22
f 31/89/23 76/90/23 32/91/23 33/92/23
f 23/93/24 22/94/24 2/95/24 6/96/24
f 66/97/25 28/98/25 29/99/25 30/100/25
f 30/101/26 24/102/26 11/103/26 12/104/26
f 25/105/27 29/106/27 6/107/27 5/108/27
f 52/109/28 26/110/28 27/111/28 53/112/28
f 26/113/29 52/114/29 24/115/29 25/116/29
f 27/117/30 26/118/30 25/119/30 5/120/30
f 52/121/31 53/122/31 11/123/31 24/124/31
f 28/125/32 66/126/32 65/127/32 23/128/32
f 29/129/33 28/130/33 23/131/33 6/132/33
f 66/133/34 30/134/34 12/135/34 65/136/34
f 76/137/35 31/138/35 22/139/35 74/140/35
f 32/141/36 76/142/36 74/143/36 10/144/36
f 31/145/37 33/146/37 2/147/37 22/148/37
f 33/149/38 34/150/38 1/151/38 2/152/38
f 35/153/39 64/154/39 63/155/39 21/156/39
f 34/157/40 35/158/40 21/159/40 1/160/40
f 64/161/41 48/162/41 9/163/41 63/164/41
f 54/165/42 55/166/42 56/167/42 57/168/42
f 70/169/43 72/170/43 73/171/43 71/172/43
f 60/173/44 54/174/44 57/175/44 61/176/44
f 72/177/45 77/178/45 78/179/45 73/180/45
f 62/181/46 60/182/46 61/183/46 63/184/46
f 77/185/47 75/186/47 74/187/47 78/188/47
f 68/189/48 70/190/48 71/191/48 69/192/48
f 27/193/49 53/194/49 11/195/49 5/196/49
f 29/197/50 30/198/50 12/199/50 6/200/50
f 67/201/51 68/202/51 69/203/51 65/204/51
f 47/205/52 46/206/52 12/207/52 11/208/52
f 58/209/53 51/210/53 50/211/53 59/212/53
f 48/213/54 32/214/54 10/215/54 9/216/54
f 42/217/55 41/218/55 9/219/55 10/220/55
f 64/221/56 62/222/56 63/223/56
f 74/224/57 75/225/57 76/226/57
f 42/227/58 41/228/58 48/229/58 32/230/58
f 65/231/59 66/232/59 67/233/59
f 47/234/60 46/235/60 30/236/60 24/237/60
f 49/238/61 50/239/61 51/240/61
f 50/241/62 49/242/62 24/243/62 11/244/62
f 49/245/63 51/246/63 47/247/63 24/248/63
f 51/249/64 58/250/64 45/251/64 47/252/64
f 59/253/65 50/254/65 11/255/65 15/256/65
f 58/257/66 59/258/66 15/259/66 45/260/66
f 55/261/67 58/262/67 59/263/67 56/264/67
f 55/265/68 54/266/68 36/267/68 43/268/68
f 57/269/69 56/270/69 19/271/69 17/272/69
f 58/273/70 55/274/70 43/275/70 45/276/70
f 59/277/71 58/278/71 45/279/71 15/280/71
f 56/281/72 59/282/72 15/283/72 19/284/72
f 54/285/73 60/286/73 39/287/73 36/288/73
f 61/289/74 57/290/74 17/291/74 13/292/74
f 60/293/75 62/294/75 41/295/75 39/296/75
f 63/297/76 61/298/76 13/299/76 9/300/76
f 62/301/77 64/302/77 48/303/77 41/304/77
f 64/305/78 63/306/78 9/307/78 48/308/78
f 66/309/79 65/310/79 12/311/79 30/312/79
f 67/313/80 66/314/80 30/315/80 46/316/80
f 68/317/81 67/318/81 46/319/81 44/320/81
f 65/321/82 69/322/82 16/323/82 12/324/82
f 70/325/83 68/326/83 44/327/83 37/328/83
f 69/329/84 71/330/84 20/331/84 16/332/84
f 72/333/85 70/334/85 37/335/85 38/336/85
f 71/337/86 73/338/86 18/339/86 20/340/86
f 76/341/87 75/342/87 42/343/87 32/344/87
f 74/345/88 76/346/88 32/347/88 10/348/88
f 75/349/89 77/350/89 40/351/89 42/352/89
f 78/353/90 74/354/90 10/355/90 14/356/90
f 77/357/91 72/358/91 38/359/91 40/360/91
f 73/361/92 78/362/92 14/363/92 18/364/92
o front door
v 0.03365375000000001 -0.31459312500000003 2.15
v 0.03365375000000001 -0.31459312500000003 2.11875
v 0.03365375000000001 -0.939593125 2.15
v 0.03365375000000001 -0.939593125 2.11875
v -0.40384624999999996 -0.31459312500000003 2.15
v -0.40384624999999996 -0.31459312500000003 2.11875
v -0.40384624999999996 -0.939593125 2.15
v -0.40384624999999996 -0.939593125 2.11875
v 0.47115375000000004 -0.31459312500000003 2.15
v 0.47115375000000004 -0.31459312500000003 2.11875
v 0.47115375000000004 -0.939593125 2.15
v 0.47115375000000004 -0.939593125 2.11875
vt 0.078125 0.90234375
vt 0.07421875 0.90234375
vt 0.07421875 0.86328125
vt 0.078125 0.86328125
vt 0.0859375 0.86328125
vt 0.0859375 0.90234375
vt 0.08203125 0.90234375
vt 0.08203125 0.86328125
vt 0.12109375 0.9140625
vt 0.1484375 0.9140625
vt 0.1484375 0.91796875
vt 0.12109375 0.91796875
vt 0.1484375 0.90625
vt 0.1484375 0.91015625
vt 0.12109375 0.91015625
vt 0.12109375 0.90625
vt 0.0390625 0.94921875
vt 0.0390625 0.98828125
vt 0.01171875 0.98828125
vt 0.01171875 0.94921875
vt 0.0703125 0.98828125
vt 0.04296875 0.98828125
vt 0.04296875 0.94921875
vt 0.0703125 0.94921875
vt 0.09375 0.90234375
vt 0.08984375 0.90234375
vt 0.08984375 0.86328125
vt 0.09375 0.86328125
vt 0.1015625 0.86328125
vt 0.1015625 0.90234375
vt 0.09765625 0.90234375
vt 0.09765625 0.86328125
vt 0.12109375 0.8984375
vt 0.1484375 0.8984375
vt 0.1484375 0.90234375
vt 0.12109375 0.90234375
vt 0.1484375 0.890625
vt 0.1484375 0.89453125
vt 0.12109375 0.89453125
vt 0.12109375 0.890625
vt 0.0390625 0.90625
vt 0.0390625 0.9453125
vt 0.01171875 0.9453125
vt 0.01171875 0.90625
vt 0.0703125 0.9453125
vt 0.04296875 0.9453125
vt 0.04296875 0.90625
vt 0.0703125 0.90625
vn 1 0 0
vn -1 0 0
vn 0 1 0
vn 0 -1 0
vn 0 0 1
vn 0 0 -1
vn 1 0 0
vn -1 0 0
vn 0 1 0
vn 0 -1 0
vn 0 0 1
vn 0 0 -1
usemtl m_b044ecb8-38bd-1bf9-470b-6a8d9d41e6b4
f 80/365/93 79/366/93 81/367/93 82/368/93
f 85/369/94 83/370/94 84/371/94 86/372/94
f 83/373/95 79/374/95 80/375/95 84/376/95
f 82/377/96 81/378/96 85/379/96 86/380/96
f 81/381/97 79/382/97 83/383/97 85/384/97
f 84/385/98 80/386/98 82/387/98 86/388/98
f 88/389/99 87/390/99 89/391/99 90/392/99
f 81/393/100 79/394/100 80/395/100 82/396/100
f 79/397/101 87/398/101 88/399/101 80/400/101
f 90/401/102 89/402/102 81/403/102 82/404/102
f 89/405/103 87/406/103 79/407/103 81/408/103
f 80/409/104 88/410/104 90/411/104 82/412/104
o backdoor
v 0.03365375000000001 -0.31459312500000003 -2.1187500000000004
v 0.03365375000000001 -0.31459312500000003 -2.1500000000000004
v 0.03365375000000001 -0.939593125 -2.1187500000000004
v 0.03365375000000001 -0.939593125 -2.1500000000000004
v -0.40384624999999996 -0.31459312500000003 -2.1187500000000004
v -0.40384624999999996 -0.31459312500000003 -2.1500000000000004
v -0.40384624999999996 -0.939593125 -2.1187500000000004
v -0.40384624999999996 -0.939593125 -2.1500000000000004
v 0.47115375000000004 -0.31459312500000003 -2.1187500000000004
v 0.47115375000000004 -0.31459312500000003 -2.1500000000000004
v 0.47115375000000004 -0.939593125 -2.1187500000000004
v 0.47115375000000004 -0.939593125 -2.1500000000000004
vt 0.109375 0.98828125
vt 0.10546875 0.98828125
vt 0.10546875 0.94921875
vt 0.109375 0.94921875
vt 0.109375 0.90625
vt 0.109375 0.9453125
vt 0.10546875 0.9453125
vt 0.10546875 0.90625
vt 0.12109375 0.8828125
vt 0.1484375 0.8828125
vt 0.1484375 0.88671875
vt 0.12109375 0.88671875
vt 0.1484375 0.875
vt 0.1484375 0.87890625
vt 0.12109375 0.87890625
vt 0.12109375 0.875
vt 0.1015625 0.94921875
vt 0.1015625 0.98828125
vt 0.07421875 0.98828125
vt 0.07421875 0.94921875
vt 0.1015625 0.9453125
vt 0.07421875 0.9453125
vt 0.07421875 0.90625
vt 0.1015625 0.90625
vt 0.109375 0.90234375
vt 0.10546875 0.90234375
vt 0.10546875 0.86328125
vt 0.109375 0.86328125
vt 0.1171875 0.94921875
vt 0.1171875 0.98828125
vt 0.11328125 0.98828125
vt 0.11328125 0.94921875
vt 0.12890625 0.984375
vt 0.15625 0.984375
vt 0.15625 0.98828125
vt 0.12890625 0.98828125
vt 0.15625 0.9765625
vt 0.15625 0.98046875
vt 0.12890625 0.98046875
vt 0.12890625 0.9765625
vt 0.0390625 0.86328125
vt 0.0390625 0.90234375
vt 0.01171875 0.90234375
vt 0.01171875 0.86328125
vt 0.0703125 0.90234375
vt 0.04296875 0.90234375
vt 0.04296875 0.86328125
vt 0.0703125 0.86328125
vn 1 0 0
vn -1 0 0
vn 0 1 0
vn 0 -1 0
vn 0 0 1
vn 0 0 -1
vn 1 0 0
vn -1 0 0
vn 0 1 0
vn 0 -1 0
vn 0 0 1
vn 0 0 -1
usemtl m_b044ecb8-38bd-1bf9-470b-6a8d9d41e6b4
f 92/413/105 91/414/105 93/415/105 94/416/105
f 97/417/106 95/418/106 96/419/106 98/420/106
f 95/421/107 91/422/107 92/423/107 96/424/107
f 94/425/108 93/426/108 97/427/108 98/428/108
f 93/429/109 91/430/109 95/431/109 97/432/109
f 96/433/110 92/434/110 94/435/110 98/436/110
f 100/437/111 99/438/111 101/439/111 102/440/111
f 93/441/112 91/442/112 92/443/112 94/444/112
f 91/445/113 99/446/113 100/447/113 92/448/113
f 102/449/114 101/450/114 93/451/114 94/452/114
f 101/453/115 99/454/115 91/455/115 93/456/115
f 92/457/116 100/458/116 102/459/116 94/460/116