# Made in Blockbench 4.12.6
mtllib outhouse_2.mtl

o building
v 0.185879375 0.20800125 -0.25
v 0.185879375 0.20800125 0.0625
v 0.173379375 -0.38574875 -0.25
v 0.173379375 -0.38574875 0.0625
v -0.189120625 0.14550125 -0.25
v -0.189120625 0.14550125 0.0625
v -0.17662062499999998 -0.38574875 -0.25
v -0.17662062499999998 -0.38574875 0.0625
v -0.18689562499999998 0.175900625 -0.25
v -0.18689562499999998 0.175900625 0.0625
v 0.18810437500000002 0.238400625 -0.25
v 0.18810437500000002 0.238400625 0.0625
v -0.21797875 0.16796312500000002 0.0625
v -0.21797875 0.16796312500000002 -0.25
v -0.22020374999999998 0.13756375 -0.25
v -0.22020374999999998 0.13756375 0.0625
v 0.2191875 0.240088125 -0.25
v 0.2191875 0.240088125 0.0625
v 0.2169625 0.20968875 0.0625
v 0.2169625 0.20968875 -0.25
v 0.2169625 0.20968875 0.09375
v 0.2191875 0.240088125 0.09375
v 0.18810437500000002 0.238400625 0.09375
v 0.185879375 0.20800125 0.09375
v -0.18689562499999998 0.175900625 0.09375
v -0.189120625 0.14550125 0.09375
v -0.21797875 0.16796312500000002 0.09375
v -0.22020374999999998 0.13756375 0.09375
v 0.2191875 0.240088125 -0.28125
v 0.2169625 0.20968875 -0.28125
v 0.185879375 0.20800125 -0.28125
v 0.18810437500000002 0.238400625 -0.28125
v -0.18689562499999998 0.175900625 -0.28125
v -0.189120625 0.14550125 -0.28125
v -0.22020374999999998 0.13756375 -0.28125
v -0.21797875 0.16796312500000002 -0.28125
vt 0.15625 0.34375
vt 0.15625 0.65625
vt 0 0.65625
vt 0 0.34375
vt 0.34375 0.65625
vt 0.1875 0.65625
vt 0.1875 0.375
vt 0.34375 0.375
vt 0.59375 0.5625
vt 0.78125 0.5625
vt 0.78125 0.71875
vt 0.59375 0.71875
vt 0.1871503567844859 0.9648104289579578
vt 0.0003496432155140894 1
vt 0.0003496432155140894 0.7030592178143932
vt 0.17531087493856526 0.699375823462329
vt 0.4089849726549314 0.7033541639554766
vt 0.4222166045439203 1
vt 0.23403339545607973 0.9731691908917728
vt 0.23403339545607973 0.7074706716542731
vt 0.484375 0.9844375
vt 0.484375 0.794353125
vt 0.640625 0.794353125
vt 0.640625 0.9844375
vt 0.81194375 0.49915624999999997
vt 0.62444375 0.53040625
vt 0.62555625 0.51520625
vt 0.81305625 0.48395625
vt 0.359375 0.34375
vt 0.203125 0.34375
vt 0.203125 0.328509375
vt 0.359375 0.328509375
vt 0.78180625 0.40540624999999997
vt 0.59430625 0.37415624999999997
vt 0.59319375 0.35895625
vt 0.78069375 0.39020625
vt 0.859375 0.983990625
vt 0.703125 0.983990625
vt 0.703125 0.96875
vt 0.859375 0.96875
vt 0.484375 0.7783125
vt 0.640625 0.7783125
vt 0.640625 0.794353125
vt 0.484375 0.794353125
vt 0.828596875 0.4799875
vt 0.827484375 0.4951875
vt 0.81194375 0.49915624999999997
vt 0.81305625 0.48395625
vt 0.390625 0.40625
vt 0.546875 0.40625
vt 0.546875 0.42229062500000003
vt 0.390625 0.42229062500000003
vt 0.578765625 0.3701875
vt 0.577653125 0.3549875
vt 0.59319375 0.35895625
vt 0.59430625 0.37415624999999997
vt 0.640625 1
vt 0.484375 1
vt 0.484375 0.9844375
vt 0.640625 0.9844375
vt 0.796234375 0.39105
vt 0.797346875 0.40625
vt 0.78180625 0.40540624999999997
vt 0.78069375 0.39020625
vt 0.546875 0.627940625
vt 0.390625 0.627940625
vt 0.390625 0.612375
vt 0.546875 0.612375
vt 0.608903125 0.53125
vt 0.610015625 0.51605
vt 0.62555625 0.51520625
vt 0.62444375 0.53040625
vt 0.6875 0.983990625
vt 0.6875 0.96875
vt 0.703125 0.96875
vt 0.703125 0.983990625
vt 0.65625 0.9844375
vt 0.65625 1
vt 0.640625 1
vt 0.640625 0.9844375
vt 0.375 0.627940625
vt 0.375 0.612375
vt 0.390625 0.612375
vt 0.390625 0.627940625
vt 0.65625 0.794353125
vt 0.65625 0.9844375
vt 0.640625 0.9844375
vt 0.640625 0.794353125
vt 0.375 0.612375
vt 0.375 0.42229062500000003
vt 0.390625 0.42229062500000003
vt 0.390625 0.612375
vt 0.375 0.328509375
vt 0.375 0.34375
vt 0.359375 0.34375
vt 0.359375 0.328509375
vt 0.375 0.42229062500000003
vt 0.375 0.40625
vt 0.390625 0.40625
vt 0.390625 0.42229062500000003
vt 0.65625 0.7783125
vt 0.65625 0.794353125
vt 0.640625 0.794353125
vt 0.640625 0.7783125
vt 0.875 0.96875
vt 0.875 0.983990625
vt 0.859375 0.983990625
vt 0.859375 0.96875
vt 0.5625 0.612375
vt 0.5625 0.627940625
vt 0.546875 0.627940625
vt 0.546875 0.612375
vt 0.46875 1
vt 0.46875 0.9844375
vt 0.484375 0.9844375
vt 0.484375 1
vt 0.46875 0.9844375
vt 0.46875 0.794353125
vt 0.484375 0.794353125
vt 0.484375 0.9844375
vt 0.5625 0.42229062500000003
vt 0.5625 0.612375
vt 0.546875 0.612375
vt 0.546875 0.42229062500000003
vt 0.1875 0.34375
vt 0.1875 0.328509375
vt 0.203125 0.328509375
vt 0.203125 0.34375
vt 0.46875 0.794353125
vt 0.46875 0.7783125
vt 0.484375 0.7783125
vt 0.484375 0.794353125
vt 0.5625 0.40625
vt 0.5625 0.42229062500000003
vt 0.546875 0.42229062500000003
vt 0.546875 0.40625
vn 0.9997784669888634 -0.021047967726081352 0
vn -0.9997232982791523 -0.023522901135980077 0
vn 0 -1 0
vn 0 0 -1
vn 0 0 1
vn -0.1643989873053573 0.9863939238321437 0
vn 0 0 -1
vn -0.9973321582041574 0.07299702878773748 0
vn 0 0 1
vn 0.9973321582041574 -0.07299702878773838 0
vn -0.2474237163239259 0.9689073766880185 0
vn 0 0 -1
vn 0.24742371632392607 -0.9689073766880183 0
vn 0 0 1
vn -0.05421007765684226 0.9985295526324894 0
vn 0 0 1
vn 0.05421007765684226 -0.9985295526324894 0
vn 0 0 -1
vn 0.9973321582041573 -0.07299702878773838 0
vn -0.05421007765684225 0.9985295526324893 0
vn 0.05421007765684225 -0.9985295526324893 0
vn -0.1643989873053573 0.9863939238321437 0
vn 0.1643989873053573 -0.9863939238321437 0
vn -0.9973321582041573 0.07299702878773746 0
vn 0.24742371632392607 -0.9689073766880183 0
vn -0.2474237163239259 0.9689073766880185 0
vn 0.9973321582041573 -0.07299702878773838 0
vn 0.05421007765684225 -0.9985295526324893 0
vn -0.05421007765684225 0.9985295526324893 0
vn -0.1643989873053573 0.9863939238321437 0
vn 0.1643989873053573 -0.9863939238321437 0
vn -0.9973321582041573 0.07299702878773746 0
vn -0.2474237163239259 0.9689073766880185 0
vn 0.24742371632392607 -0.9689073766880183 0
usemtl m_600216a5-4478-a59a-8bb4-82042be8ac2f
f 3/1/1 1/2/1 2/3/1 4/4/1
f 6/5/2 5/6/2 7/7/2 8/8/2
f 7/9/3 3/10/3 4/11/3 8/12/3
f 5/13/4 1/14/4 3/15/4 7/16/4
f 4/17/5 2/18/5 6/19/5 8/20/5
f 11/21/6 9/22/6 10/23/6 12/24/6
f 33/25/7 32/26/7 31/27/7 34/28/7
f 13/29/8 14/30/8 15/31/8 16/32/8
f 23/33/9 25/34/9 26/35/9 24/36/9
f 17/37/10 18/38/10 19/39/10 20/40/10
f 14/41/11 13/42/11 10/43/11 9/44/11
f 35/45/12 36/46/12 33/47/12 34/48/12
f 16/49/13 15/50/13 5/51/13 6/52/13
f 27/53/14 28/54/14 26/55/14 25/56/14
f 18/57/15 17/58/15 11/59/15 12/60/15
f 21/61/16 22/62/16 23/63/16 24/64/16
f 20/65/17 19/66/17 2/67/17 1/68/17
f 29/69/18 30/70/18 31/71/18 32/72/18
f 22/73/19 21/74/19 19/75/19 18/76/19
f 23/77/20 22/78/20 18/79/20 12/80/20
f 21/81/21 24/82/21 2/83/21 19/84/21
f 25/85/22 23/86/22 12/87/22 10/88/22
f 24/89/23 26/90/23 6/91/23 2/92/23
f 28/93/24 27/94/24 13/95/24 16/96/24
f 26/97/25 28/98/25 16/99/25 6/100/25
f 27/101/26 25/102/26 10/103/26 13/104/26
f 30/105/27 29/106/27 17/107/27 20/108/27
f 31/109/28 30/110/28 20/111/28 1/112/28
f 29/113/29 32/114/29 11/115/29 17/116/29
f 32/117/30 33/118/30 9/119/30 11/120/30
f 34/121/31 31/122/31 1/123/31 5/124/31
f 36/125/32 35/126/32 15/127/32 14/128/32
f 33/129/33 36/130/33 14/131/33 9/132/33
f 35/133/34 34/134/34 5/135/34 15/136/34
o back door
v 0.129629375 0.12362625 0.05
v 0.129629375 0.12362625 0.08125
v 0.129629375 -0.37637375 0.05
v 0.129629375 -0.37637375 0.08125
v -0.120370625 0.12362625 0.05
v -0.120370625 0.12362625 0.08125
v -0.120370625 -0.37637375 0.05
v -0.120370625 -0.37637375 0.08125
vt 0.03125 0.46875
vt 0.03125 0.71875
vt 0 0.71875
vt 0 0.46875
vt 0.09375 0.71875
vt 0.0625 0.71875
vt 0.0625 0.46875
vt 0.09375 0.46875
vt 0.25 0.6875
vt 0.25 0.71875
vt 0.125 0.71875
vt 0.125 0.6875
vt 0.28125 0.6875
vt 0.40625 0.6875
vt 0.40625 0.71875
vt 0.28125 0.71875
vt 0.125 1
vt 0 1
vt 0 0.75
vt 0.125 0.75
vt 0.28125 0.75
vt 0.28125 1
vt 0.15625 1
vt 0.15625 0.75
vn 1 0 0
vn -1 0 0
vn 0 1 0
vn 0 -1 0
vn 0 0 -1
vn 0 0 1
usemtl m_88f7823f-8d85-9636-802f-1a2d3ccecaee
f 39/137/35 37/138/35 38/139/35 40/140/35
f 42/141/36 41/142/36 43/143/36 44/144/36
f 38/145/37 37/146/37 41/147/37 42/148/37
f 43/149/38 39/150/38 40/151/38 44/152/38
f 41/153/39 37/154/39 39/155/39 43/156/39
f 40/157/40 38/158/40 42/159/40 44/160/40
o decoration
v 0.025952093782504126 0.0094398302745896 0.0875
v 0.025952093782504126 0.0094398302745896 0.1
v 0.020620310008528923 -0.033984063859718236 0.0875
v 0.020620310008528923 -0.033984063859718236 0.1
v -0.004110888468021965 0.013131100349652258 0.0875
v -0.004110888468021965 0.013131100349652258 0.1
v -0.009442672241997168 -0.030292793784655575 0.0875
v -0.009442672241997168 -0.030292793784655575 0.1
v 0.002850246890193456 0.0343156578332204 0.0875
v 0.002850246890193456 0.0343156578332204 0.1
v -0.02721273536033263 0.03800692790828306 0.0875
v -0.02721273536033263 0.03800692790828306 0.1
v -0.007813320657756948 -0.052532130435395265 0.0875
v -0.03787630290828303 -0.048840860360332604 0.0875
v -0.007813320657756948 -0.052532130435395265 0.1
v -0.03787630290828303 -0.048840860360332604 0.1
vt 0.0625 0.75
vt 0.0625 0.8125
vt 0 0.8125
vt 0 0.75
vt 0.1875 0.8125
vt 0.125 0.8125
vt 0.125 0.75
vt 0.1875 0.75
vt 0.3125 0.9375
vt 0.3125 1
vt 0.25 1
vt 0.25 0.9375
vt 0.25 0.8125
vt 0.3125 0.8125
vt 0.3125 0.875
vt 0.25 0.875
vt 0.033412500000000005 0.978125
vt 0.0031250000000000028 0.978125
vt 0.0031250000000000028 0.934375
vt 0.033412500000000005 0.934375
vt 0.184375 0.934375
vt 0.184375 0.978125
vt 0.1540875 0.978125
vt 0.1540875 0.934375
vt 0.033412500000000005 0.978125
vt 0.059375 1
vt 0.029087500000000002 1
vt 0.0031250000000000028 0.978125
vt 0.3125 0.6875
vt 0.3125 0.75
vt 0.25 0.75
vt 0.25 0.6875
vt 0.184375 0.978125
vt 0.1584125 1
vt 0.128125 1
vt 0.1540875 0.978125
vt 0.0625 0.625
vt 0.0625 0.6875
vt 0 0.6875
vt 0 0.625
vt 0.125 0.6875
vt 0.125 0.625
vt 0.1875 0.625
vt 0.1875 0.6875
vt 0.0031250000000000028 0.934375
vt 0.029087500000000002 0.9125
vt 0.059375 0.9125
vt 0.033412500000000005 0.934375
vt 0.375 1
vt 0.375 0.9375
vt 0.4375 0.9375
vt 0.4375 1
vt 0.1540875 0.934375
vt 0.128125 0.9125
vt 0.1584125 0.9125
vt 0.184375 0.934375
vn 0.992546151641322 -0.12186934340514746 0
vn -0.992546151641322 0.12186934340514746 0
vn 0.12186934340514746 0.992546151641322 0
vn -0.12186934340514746 -0.992546151641322 0
vn 0 0 -1
vn 0 0 1
vn 0 0 -1
vn 0.732751421939215 0.6804964023755442 0
vn 0 0 1
vn -0.732751421939215 -0.6804964023755442 0
vn 0.546358593518834 -0.8375513639700682 0
vn 0 0 -1
vn -0.546358593518834 0.8375513639700682 0
vn 0 0 1
usemtl m_4e5b0f11-f233-0d6c-1427-b958e00f926d
f 47/161/41 45/162/41 46/163/41 48/164/41
f 50/165/42 49/166/42 51/167/42 52/168/42
f 54/169/43 53/170/43 55/171/43 56/172/43
f 58/173/44 57/174/44 59/175/44 60/176/44
f 49/177/45 45/178/45 47/179/45 51/180/45
f 48/181/46 46/182/46 50/183/46 52/184/46
f 49/185/47 55/186/47 53/187/47 45/188/47
f 45/189/48 53/190/48 54/191/48 46/192/48
f 46/193/49 54/194/49 56/195/49 50/196/49
f 50/197/50 56/198/50 55/199/50 49/200/50
f 48/201/51 59/202/51 57/203/51 47/204/51
f 47/205/52 57/206/52 58/207/52 51/208/52
f 51/209/53 58/210/53 60/211/53 52/212/53
f 52/213/54 60/214/54 59/215/54 48/216/54