# Made in Blockbench 4.12.6
mtllib piano_dead.mtl

o piano
v -0.2328125 -0.04585937500000001 -0.0415625
v -0.2328125 -0.04585937500000001 -0.0728125
v -0.2390625 -0.252109375 -0.0478125
v -0.2390625 -0.252109375 -0.0665625
v -0.2640625 -0.04585937500000001 -0.0415625
v -0.2640625 -0.04585937500000001 -0.0728125
v -0.2578125 -0.252109375 -0.0478125
v -0.2578125 -0.252109375 -0.0665625
v 0.2671875 -0.04585937500000001 -0.0415625
v 0.2671875 -0.04585937500000001 -0.0728125
v 0.26093750000000004 -0.252109375 -0.0478125
v 0.26093750000000004 -0.252109375 -0.0665625
v 0.2359375 -0.04585937500000001 -0.0415625
v 0.2359375 -0.04585937500000001 -0.0728125
v 0.24218749999999997 -0.252109375 -0.0478125
v 0.24218749999999997 -0.252109375 -0.0665625
v 0.27031250000000007 -0.04585937500000001 0.1865625
v 0.27031250000000007 -0.04585937500000001 -0.0009375000000000008
v 0.27031250000000007 -0.252109375 0.1865625
v 0.27031250000000007 -0.252109375 -0.0009375000000000008
v -0.2671875 -0.04585937500000001 0.1865625
v -0.2671875 -0.04585937500000001 -0.0009375000000000008
v 0.2515625 -0.0021093750000000244 0.1865625
v 0.2515625 -0.0021093750000000244 -0.0009375000000000008
v -0.2484375 -0.0021093750000000244 0.1865625
v -0.2484375 -0.0021093750000000244 -0.0009375000000000008
v -0.2484375 -0.0021093750000000244 -0.0759375
v 0.2515625 -0.0021093750000000244 -0.0759375
v 0.2515625 0.04164062499999999 0.1865625
v -0.2484375 0.04164062499999999 0.1865625
v 0.2515625 0.060390624999999976 0.1865625
v 0.2515625 0.060390624999999976 -0.0009375000000000008
v -0.2484375 0.060390624999999976 0.1865625
v -0.2484375 0.060390624999999976 -0.0009375000000000008
v 0.2515625 -0.04585937500000001 -0.0759375
v -0.2484375 -0.04585937500000001 -0.0759375
v 0.2515625 0.12289062499999998 0.1865625
v 0.2515625 0.12289062499999998 -0.0009375000000000008
v -0.2484375 0.12289062499999998 0.1865625
v -0.2484375 0.12289062499999998 -0.0009375000000000008
v -0.2484375 0.060390624999999976 -0.013437500000000005
v 0.2515625 0.060390624999999976 -0.013437500000000005
v 0.2515625 0.04164062499999999 -0.013437500000000005
v -0.2484375 0.04164062499999999 -0.013437500000000005
v 0.27031250000000007 -0.0021093750000000244 0.1865625
v 0.27031250000000007 -0.0021093750000000244 -0.0009375000000000008
v 0.27031250000000007 -0.04585937500000001 -0.0759375
v 0.27031250000000007 -0.0021093750000000244 -0.0759375
v 0.27031250000000007 0.016640624999999964 -0.0759375
v 0.2515625 0.016640624999999964 -0.0759375
v 0.2515625 0.04164062499999999 -0.0009375000000000008
v -0.2671875 -0.0021093750000000244 -0.0009375000000000008
v -0.2671875 -0.0021093750000000244 0.1865625
v -0.2671875 -0.0021093750000000244 -0.0759375
v -0.2671875 -0.04585937500000001 -0.0759375
v -0.2671875 0.016640624999999964 -0.0759375
v -0.2484375 0.04164062499999999 -0.0009375000000000008
v -0.2484375 0.016640624999999964 -0.0759375
v -0.2671875 -0.252109375 -0.0009375000000000008
v -0.2671875 -0.252109375 0.1865625
v -0.2671875 0.060390624999999976 0.1865625
v -0.2671875 0.060390624999999976 -0.0009375000000000008
v -0.2671875 0.04164062499999999 -0.0009375000000000008
v -0.2671875 0.04164062499999999 0.1865625
v -0.2671875 0.12289062499999998 0.1865625
v -0.2671875 0.12289062499999998 -0.0009375000000000008
v 0.27031250000000007 0.12289062499999998 -0.0009375000000000008
v 0.27031250000000007 0.12289062499999998 0.1865625
v 0.27031250000000007 0.060390624999999976 0.1865625
v 0.27031250000000007 0.060390624999999976 -0.0009375000000000008
v 0.27031250000000007 0.04164062499999999 0.1865625
v 0.27031250000000007 0.04164062499999999 -0.0009375000000000008
v 0.27031250000000007 0.17289062499999996 0.1865625
v 0.27031250000000007 0.17289062499999996 -0.0009375000000000008
v 0.2515625 0.17289062499999996 -0.0009375000000000008
v 0.2515625 0.17289062499999996 0.1865625
v -0.2671875 0.17289062499999996 -0.0009375000000000008
v -0.2671875 0.17289062499999996 0.1865625
v -0.2484375 0.17289062499999996 0.1865625
v -0.2484375 0.17289062499999996 -0.0009375000000000008
vt 0.2109375 0.25
vt 0.1953125 0.25
vt 0.1984375 0.15625
vt 0.2078125 0.15625
vt 0.0828125 0.15625
vt 0.0859375 0.25
vt 0.0703125 0.25
vt 0.0734375 0.15625
vt 0.25 0.21875
vt 0.28125 0.21875
vt 0.28125 0.25
vt 0.25 0.25
vt 0.34375 0.21875
vt 0.34375 0.25
vt 0.3125 0.25
vt 0.3125 0.21875
vt 0.5203125 0.21875
vt 0.5234375 0.3125
vt 0.5078125 0.3125
vt 0.5109375 0.21875
vt 0.7421875 0.53125
vt 0.7265625 0.53125
vt 0.7296875 0.4375
vt 0.7390625 0.4375
vt 0.1484375 0.25
vt 0.1328125 0.25
vt 0.1359375 0.15625
vt 0.1453125 0.15625
vt 0.0203125 0.15625
vt 0.0234375 0.25
vt 0.0078125 0.25
vt 0.0109375 0.15625
vt 0.375 0.21875
vt 0.40625 0.21875
vt 0.40625 0.25
vt 0.375 0.25
vt 0.46875 0.21875
vt 0.46875 0.25
vt 0.4375 0.25
vt 0.4375 0.21875
vt 0.7390625 0.1875
vt 0.7421875 0.28125
vt 0.7265625 0.28125
vt 0.7296875 0.1875
vt 0.7421875 0.40625
vt 0.7265625 0.40625
vt 0.7296875 0.3125
vt 0.7390625 0.3125
vt 0.10625 0.640625
vt 0.0125 0.640625
vt 0.0125 0.5375
vt 0.10625 0.5375
vt 0.328125 0.78125
vt 0.578125 0.78125
vt 0.578125 0.875
vt 0.328125 0.875
vt 0.46875 0.65625
vt 0.46875 0.75
vt 0.1875 0.75
vt 0.1875 0.65625
vt 0.275 0.7875
vt 0.275 0.890625
vt 0.00625 0.890625
vt 0.00625 0.7875
vt 0.59375 1
vt 0.3125 1
vt 0.3125 0.90625
vt 0.59375 0.90625
vt 0.265625 0.9125
vt 0.015625 0.9125
vt 0.00625 0.890625
vt 0.275 0.890625
vt 0.10625 0.6625
vt 0.0125 0.6625
vt 0.0125 0.640625
vt 0.10625 0.640625
vt 0.765625 0.646875
vt 0.515625 0.646875
vt 0.515625 0.625
vt 0.765625 0.625
vt 0.26875 0.44375
vt 0.175 0.44375
vt 0.175 0.421875
vt 0.26875 0.421875
vt 0.75 0.59375
vt 0.5 0.59375
vt 0.5 0.5625
vt 0.75 0.5625
vt 0.14375 0.640625
vt 0.14375 0.6625
vt 0.10625 0.6625
vt 0.10625 0.640625
vt 0.515625 0.6875
vt 0.765625 0.6875
vt 0.775 0.725
vt 0.50625 0.725
vt 0.1375 0.44375
vt 0.1375 0.421875
vt 0.175 0.421875
vt 0.175 0.44375
vt 0.265625 0.934375
vt 0.015625 0.934375
vt 0.015625 0.9125
vt 0.265625 0.9125
vt 0.10625 0.684375
vt 0.0125 0.684375
vt 0.0125 0.6625
vt 0.10625 0.6625
vt 0.546875 0.375
vt 0.296875 0.375
vt 0.296875 0.353125
vt 0.546875 0.353125
vt 0.26875 0.46562499999999996
vt 0.175 0.46562499999999996
vt 0.175 0.44375
vt 0.26875 0.44375
vt 0.265625 0.94375
vt 0.015625 0.94375
vt 0.015625 0.934375
vt 0.265625 0.934375
vt 0.10625 0.69375
vt 0.0125 0.69375
vt 0.0125 0.684375
vt 0.10625 0.684375
vt 0.6875 0.5
vt 0.4375 0.5
vt 0.4375 0.46875
vt 0.6875 0.46875
vt 0.26875 0.475
vt 0.175 0.475
vt 0.175 0.46562499999999996
vt 0.26875 0.46562499999999996
vt 0.265625 0.975
vt 0.015625 0.975
vt 0.015625 0.94375
vt 0.265625 0.94375
vt 0.10625 0.725
vt 0.0125 0.725
vt 0.0125 0.69375
vt 0.10625 0.69375
vt 0.4484375 0.6
vt 0.1984375 0.6
vt 0.1984375 0.56875
vt 0.4484375 0.56875
vt 0.26875 0.50625
vt 0.175 0.50625
vt 0.175 0.475
vt 0.26875 0.475
vt 0.6875 0.4375
vt 0.4375 0.4375
vt 0.4375 0.40625
vt 0.6875 0.40625
vt 0.59375 0.21875
vt 0.59375 0.25
vt 0.5625 0.25
vt 0.5625 0.21875
vt 0 0.34375
vt 0.25 0.34375
vt 0.25 0.375
vt 0 0.375
vt 0.625 0.25
vt 0.625 0.21875
vt 0.65625 0.21875
vt 0.65625 0.25
vt 0.03125 0.40625
vt 0.03125 0.5
vt 0 0.5
vt 0 0.40625
vt 0.275 0.9125
vt 0.275 0.934375
vt 0.265625 0.934375
vt 0.265625 0.9125
vt 0.2875 0.375
vt 0.2875 0.353125
vt 0.296875 0.353125
vt 0.296875 0.375
vt 0.275 0.9125
vt 0.265625 0.9125
vt 0.275 0.890625
vt 0.50625 0.646875
vt 0.50625 0.625
vt 0.515625 0.625
vt 0.515625 0.646875
vt 0.78125 0.34375
vt 0.78125 0.3125
vt 0.8125 0.3125
vt 0.8125 0.34375
vt 0.775 0.6875
vt 0.775 0.725
vt 0.765625 0.6875
vt 0.14375 0.671875
vt 0.10625 0.684375
vt 0.10625 0.6625
vt 0.14375 0.6625
vt 0.515625 0.65625
vt 0.50625 0.65625
vt 0.50625 0.646875
vt 0.515625 0.646875
vt 0.8125 0.59375
vt 0.78125 0.58125
vt 0.78125 0.5625
vt 0.8125 0.5625
vt 0.8125 0.53125
vt 0.78125 0.53125
vt 0.78125 0.5
vt 0.8125 0.5
vt 0.0625 0.5
vt 0.0625 0.40625
vt 0.09375 0.40625
vt 0.09375 0.5
vt 0.55625 0.353125
vt 0.55625 0.375
vt 0.546875 0.375
vt 0.546875 0.353125
vt 0.3859375 0.1875
vt 0.3859375 0.16562500000000002
vt 0.3953125 0.16562500000000002
vt 0.3953125 0.1875
vt 0.3859375 0.16562500000000002
vt 0.3859375 0.14375000000000004
vt 0.3953125 0.16562500000000002
vt 0.775 0.625
vt 0.775 0.646875
vt 0.765625 0.646875
vt 0.765625 0.625
vt 0.8125 0.25
vt 0.8125 0.28125
vt 0.78125 0.28125
vt 0.78125 0.25
vt 0.175 0.46562499999999996
vt 0.1375 0.453125
vt 0.1375 0.44375
vt 0.175 0.44375
vt 0.8125 0.46875
vt 0.78125 0.46875
vt 0.78125 0.4375
vt 0.8125 0.4375
vt 0.8125 0.39375000000000004
vt 0.78125 0.40625
vt 0.78125 0.375
vt 0.8125 0.375
vt 0.775 0.65625
vt 0.765625 0.65625
vt 0.765625 0.646875
vt 0.775 0.646875
vt 0.3125 0.4375
vt 0.40625 0.4375
vt 0.40625 0.53125
vt 0.3125 0.53125
vt 0.50625 0.725
vt 0.50625 0.6875
vt 0.515625 0.6875
vt 0.4578125 0.559375
vt 0.4578125 0.56875
vt 0.4484375 0.56875
vt 0.4484375 0.559375
vt 0.59375 0.375
vt 0.59375 0.28125
vt 0.625 0.28125
vt 0.625 0.375
vt 0.3234375 0.13124999999999998
vt 0.3234375 0.12187499999999996
vt 0.3328125 0.12187499999999996
vt 0.3328125 0.13124999999999998
vt 0.31875 0.875
vt 0.31875 0.78125
vt 0.328125 0.78125
vt 0.328125 0.875
vt 0.4578125 0.56875
vt 0.4578125 0.6
vt 0.4484375 0.6
vt 0.4484375 0.56875
vt 0.3234375 0.16249999999999998
vt 0.3234375 0.13124999999999998
vt 0.3328125 0.13124999999999998
vt 0.3328125 0.16249999999999998
vt 0.5875 0.78125
vt 0.5875 0.875
vt 0.578125 0.875
vt 0.578125 0.78125
vt 0.275 0.94375
vt 0.275 0.975
vt 0.265625 0.975
vt 0.265625 0.94375
vt 0.8234375 0.725
vt 0.8234375 0.69375
vt 0.8328125 0.69375
vt 0.8328125 0.725
vt 0.275 0.934375
vt 0.275 0.94375
vt 0.265625 0.94375
vt 0.265625 0.934375
vt 0.6875 0.28125
vt 0.6875 0.375
vt 0.65625 0.375
vt 0.65625 0.28125
vt 0.8234375 0.69375
vt 0.8234375 0.684375
vt 0.8328125 0.684375
vt 0.8328125 0.69375
vt 0.265625 1
vt 0.015625 1
vt 0.015625 0.975
vt 0.265625 0.975
vt 0.09375 0.3125
vt 0 0.3125
vt 0 0.28125
vt 0.09375 0.28125
vt 0.4484375 0.625
vt 0.1984375 0.625
vt 0.1984375 0.6
vt 0.4484375 0.6
vt 0.21875 0.3125
vt 0.125 0.3125
vt 0.125 0.28125
vt 0.21875 0.28125
vt 0.10625 0.75
vt 0.0125 0.75
vt 0.0125 0.725
vt 0.10625 0.725
vt 0.8328125 0.75
vt 0.8234375 0.75
vt 0.8234375 0.725
vt 0.8328125 0.725
vt 0.34375 0.3125
vt 0.25 0.3125
vt 0.25 0.28125
vt 0.34375 0.28125
vt 0.275 1
vt 0.265625 1
vt 0.265625 0.975
vt 0.275 0.975
vt 0.26875 0.53125
vt 0.175 0.53125
vt 0.175 0.50625
vt 0.26875 0.50625
vt 0.3328125 0.1875
vt 0.3234375 0.1875
vt 0.3234375 0.16249999999999998
vt 0.3328125 0.16249999999999998
vt 0.46875 0.3125
vt 0.375 0.3125
vt 0.375 0.28125
vt 0.46875 0.28125
vt 0.4578125 0.625
vt 0.4484375 0.625
vt 0.4484375 0.6
vt 0.4578125 0.6
vn 0.9995411791453815 -0.03028912664076914 0
vn -0.9995411791453815 -0.030289126640769135 0
vn 0 1 0
vn 0 -1 0
vn 0 -0.030289126640769135 0.9995411791453815
vn 0 -0.03028912664076914 -0.9995411791453815
vn 0.9995411791453815 -0.030289126640769028 0
vn -0.9995411791453815 -0.030289126640769028 0
vn 0 1 0
vn 0 -1 0
vn 0 -0.030289126640769142 0.9995411791453815
vn 0 -0.03028912664076914 -0.9995411791453815
vn 1 0 0
vn 0 1 0
vn 0 -1 0
vn 0 0 1
vn 0 0 -1
vn 0 0 1
vn 1 0 0
vn 0 0 -1
vn -1 0 0
vn 0 1 0
vn 1 0 0
vn 0 -1 0
vn -1 0 0
vn 0 0 1
vn 1 0 0
vn 0 0 -1
vn -1 0 0
vn 0 0 1
vn 1 0 0
vn 0 0 -1
vn -1 0 0
vn 0 0 1
vn 1 0 0
vn 0 0 -1
vn -1 0 0
vn 0 1 0
vn 1 0 0
vn 0 -1 0
vn -1 0 0
vn 0 1 0
vn 0 0 1
vn 0 0 -1
vn 0 0 1
vn 0 0 -1
vn 0 0.9486832980505139 -0.3162277660168382
vn 0 -1 0
vn 1 0 0
vn 0 0 -1
vn -1 0 0
vn 0 0 1
vn 0 1 0
vn 0 0 -1
vn 0 0 1
vn 0 0 1
vn 0 0 -1
vn 0 0.9486832980505139 -0.3162277660168382
vn -1 0 0
vn 0 0 1
vn 1 0 0
vn 0 0 -1
vn 1 0 0
vn 0 -1 0
vn 0 0 -1
vn 0 -1 0
vn 0 0 1
vn 0 1 0
vn 0 0 -1
vn 0 0 1
vn 0 1 0
vn 0 0 1
vn 0 0 -1
vn 0 0 1
vn 0 -1 0
vn 0 0 -1
vn 0 0 1
vn 1 0 0
vn 0 0 -1
vn -1 0 0
vn 1 0 0
vn 0 0 -1
vn -1 0 0
vn 0 0 1
vn -1 0 0
vn 0 0 1
vn 1 0 0
vn 0 0 -1
usemtl m_c7718395-838c-35ef-470a-50bfbb6ed7f8
f 2/1/1 1/2/1 3/3/1 4/4/1
f 7/5/2 5/6/2 6/7/2 8/8/2
f 5/9/3 1/10/3 2/11/3 6/12/3
f 4/13/4 3/14/4 7/15/4 8/16/4
f 3/17/5 1/18/5 5/19/5 7/20/5
f 6/21/6 2/22/6 4/23/6 8/24/6
f 10/25/7 9/26/7 11/27/7 12/28/7
f 15/29/8 13/30/8 14/31/8 16/32/8
f 13/33/9 9/34/9 10/35/9 14/36/9
f 12/37/10 11/38/10 15/39/10 16/40/10
f 11/41/11 9/42/11 13/43/11 15/44/11
f 14/45/12 10/46/12 12/47/12 16/48/12
f 18/49/13 17/50/13 19/51/13 20/52/13
f 79/53/14 76/54/14 75/55/14 80/56/14
f 20/57/15 19/58/15 60/59/15 59/60/15
f 19/61/16 17/62/16 21/63/16 60/64/16
f 22/65/17 18/66/17 20/67/17 59/68/17
f 23/69/18 25/70/18 21/71/18 17/72/18
f 46/73/19 45/74/19 17/75/19 18/76/19
f 27/77/20 28/78/20 35/79/20 36/80/20
f 53/81/21 52/82/21 22/83/21 21/84/21
f 28/85/22 27/86/22 26/87/22 24/88/22
f 47/89/23 48/90/23 46/91/23 18/92/23
f 36/93/24 35/94/24 18/95/24 22/96/24
f 54/97/25 55/98/25 22/99/25 52/100/25
f 29/101/26 30/102/26 25/103/26 23/104/26
f 72/105/27 71/106/27 45/107/27 46/108/27
f 57/109/28 51/110/28 24/111/28 26/112/28
f 64/113/29 63/114/29 52/115/29 53/116/29
f 31/117/30 33/118/30 30/119/30 29/120/30
f 70/121/31 69/122/31 71/123/31 72/124/31
f 41/125/32 42/126/32 43/127/32 44/128/32
f 61/129/33 62/130/33 63/131/33 64/132/33
f 37/133/34 39/134/34 33/135/34 31/136/34
f 67/137/35 68/138/35 69/139/35 70/140/35
f 40/141/36 38/142/36 32/143/36 34/144/36
f 65/145/37 66/146/37 62/147/37 61/148/37
f 42/149/38 41/150/38 34/151/38 32/152/38
f 43/153/39 42/154/39 32/155/39 51/156/39
f 44/157/40 43/158/40 51/159/40 57/160/40
f 41/161/41 44/162/41 57/163/41 34/164/41
f 71/165/42 72/166/42 51/167/42 29/168/42
f 45/169/43 71/170/43 29/171/43 23/172/43
f 72/173/44 46/174/44 24/175/44 51/176/44
f 45/177/45 23/178/45 17/179/45
f 48/180/46 47/181/46 35/182/46 28/183/46
f 72/184/47 49/185/47 50/186/47 51/187/47
f 47/188/48 18/189/48 35/190/48
f 49/191/49 72/192/49 46/193/49 48/194/49
f 50/195/50 49/196/50 48/197/50 28/198/50
f 51/199/51 50/200/51 28/201/51 24/202/51
f 72/203/52 51/204/52 24/205/52 46/206/52
f 63/207/53 64/208/53 30/209/53 57/210/53
f 52/211/54 63/212/54 57/213/54 26/214/54
f 64/215/55 53/216/55 25/217/55 30/218/55
f 53/219/56 21/220/56 25/221/56
f 55/222/57 54/223/57 27/224/57 36/225/57
f 56/226/58 63/227/58 57/228/58 58/229/58
f 63/230/59 56/231/59 54/232/59 52/233/59
f 57/234/60 63/235/60 52/236/60 26/237/60
f 58/238/61 57/239/61 26/240/61 27/241/61
f 56/242/62 58/243/62 27/244/62 54/245/62
f 60/246/63 59/247/63 22/248/63 21/249/63
f 22/250/64 55/251/64 36/252/64
f 63/253/65 62/254/65 34/255/65 57/256/65
f 64/257/66 63/258/66 57/259/66 30/260/66
f 61/261/67 64/262/67 30/263/67 33/264/67
f 77/265/68 78/266/68 79/267/68 80/268/68
f 62/269/69 66/270/69 40/271/69 34/272/69
f 65/273/70 61/274/70 33/275/70 39/276/70
f 73/277/71 74/278/71 75/279/71 76/280/71
f 69/281/72 68/282/72 37/283/72 31/284/72
f 67/285/73 70/286/73 32/287/73 38/288/73
f 71/289/74 69/290/74 31/291/74 29/292/74
f 72/293/75 71/294/75 29/295/75 51/296/75
f 70/297/76 72/298/76 51/299/76 32/300/76
f 76/301/77 79/302/77 39/303/77 37/304/77
f 75/305/78 76/306/78 37/307/78 38/308/78
usemtl m_e17e5d62-4964-28d5-ca6e-ee98a8a032a7
f 80/309/79 75/310/79 38/311/79 40/312/79
usemtl m_c7718395-838c-35ef-470a-50bfbb6ed7f8
f 79/313/80 80/314/80 40/315/80 39/316/80
f 74/317/81 73/318/81 68/319/81 67/320/81
f 75/321/82 74/322/82 67/323/82 38/324/82
f 76/325/83 75/326/83 38/327/83 37/328/83
f 73/329/84 76/330/84 37/331/84 68/332/84
f 78/333/85 77/334/85 66/335/85 65/336/85
f 79/337/86 78/338/86 65/339/86 39/340/86
f 80/341/87 79/342/87 39/343/87 40/344/87
f 77/345/88 80/346/88 40/347/88 66/348/88
o keys
v 0.2578125 0.010390625 0.005312499999999998
v 0.2578125 0.010390625 -0.0696875
v 0.2578125 -0.0021093749999999967 0.005312499999999998
v 0.2578125 -0.0021093749999999967 -0.0696875
v -0.2609375 0.010390625 0.005312499999999998
v -0.2609375 0.010390625 -0.0696875
v -0.2609375 -0.0021093749999999967 0.005312499999999998
v -0.2609375 -0.0021093749999999967 -0.0696875
vt 0.8125 0.21875
vt 0.78125 0.21875
vt 0.78125 0.1875
vt 0.8125 0.1875
vt 0.28125 0.15625
vt 0.28125 0.1875
vt 0.25 0.1875
vt 0.25 0.15625
vt 0.625 0.96875
vt 0.875 0.96875
vt 0.875 1
vt 0.625 1
vt 0.875 0.90625
vt 0.875 0.9375
vt 0.625 0.9375
vt 0.625 0.90625
vt 0.875 0.84375
vt 0.875 0.875
vt 0.625 0.875
vt 0.625 0.84375
vt 0.875 0.8125
vt 0.625 0.8125
vt 0.625 0.78125
vt 0.875 0.78125
vn 1 0 0
vn -1 0 0
vn 0 1 0
vn 0 -1 0
vn 0 0 1
vn 0 0 -1
usemtl m_c7718395-838c-35ef-470a-50bfbb6ed7f8
f 82/349/89 81/350/89 83/351/89 84/352/89
f 87/353/90 85/354/90 86/355/90 88/356/90
f 85/357/91 81/358/91 82/359/91 86/360/91
f 84/361/92 83/362/92 87/363/92 88/364/92
f 83/365/93 81/366/93 85/367/93 87/368/93
f 86/369/94 82/370/94 84/371/94 88/372/94