# Made in Blockbench 4.12.6
mtllib can_crushed.mtl

o crushed can
v 0.031430625 -0.0023256250000000117 0.066665
v 0.031430625 0.05948875000000001 0.08833375
v 0.079585 -0.0023256250000000117 0.030024375
v 0.079585 0.06709437499999998 0.05294125
v 0.090500625 -0.0023256250000000117 -0.026113125
v 0.090500625 0.07874562499999999 -0.0012831250000000004
v 0.05907 -0.0023256250000000117 -0.075479375
v 0.05907 0.0889925 -0.048966875
v 0 -0.0023256250000000117 -0.094975625
v 0 0.09303875 -0.06779875
v -0.05907 -0.0023256250000000117 -0.075479375
v -0.05907 0.0889925 -0.048966875
v -0.090500625 -0.0023256250000000117 -0.026113125
v -0.090500625 0.07874562499999999 -0.0012831250000000004
v -0.079585 -0.0023256250000000117 0.030024375
v -0.079585 0.06709437499999998 0.05294125
v -0.031430625 -0.0023256250000000117 0.066665
v -0.031430625 0.05948875000000001 0.08833375
v 0.079585 -0.07516625 0.053848125
v 0.031430625 -0.070569375 0.090038125
v 0.05907 -0.088401875 -0.05035625
v 0.090500625 -0.08220875000000001 -0.0015981249999999997
v 0 -0.090848125 -0.0696125
v -0.05907 -0.088401875 -0.05035625
v -0.090500625 -0.08220875000000001 -0.0015981249999999997
v -0.079585 -0.07516625 0.053848125
v -0.031430625 -0.070569375 0.090038125
v -0.05499061888566405 0.09384765424672492 -0.043594075117757564
v -0.08425087048959619 0.08360082304606548 0.0002719268629849114
v 3.60290111714018e-20 0.08059767784871555 0.01313047483530185
v 3.242611005376049e-19 0.09789396865897315 -0.06091854616917264
v 0.05499061888566405 0.09384765424672492 -0.043594075117757564
v 0.08425087048959619 0.08360082304606548 0.00027192686298490795
v 0.0740887847860894 0.07194958562028086 0.050155045160050094
v 0.02925987978927752 0.06434387807501898 0.0827143753816026
v -0.02925987978927752 0.06434387807501898 0.0827143753816026
v -0.0740887847860894 0.07194958562028086 0.050155045160050094
v 0.05499091859332486 -0.0941537369625304 -0.043988706890285716
v 0.08425087514096632 -0.08796061708238559 0.0009518237265962546
v 5.362049984490838e-20 -0.08614559655694304 0.014125429709939718
v 0.07408899732462504 -0.08091808957449906 0.052057063897200447
v 0.02926004990572765 -0.07632118934282375 0.08541372137088916
v -0.02926004990572765 -0.07632118934282375 0.08541372137088916
v -0.07408899732462504 -0.08091808957449906 0.052057063897200447
v -0.08425087514096632 -0.08796061708238559 0.0009518237265962546
v -0.05499091859332486 -0.0941537369625304 -0.04398870689028572
v 0 -0.09659997808320991 -0.06173720862456164
vt 0.1600260855881766 0.77111875
vt 0.11520108558817661 0.8047875
vt 0.0859385855881766 0.7328250000000001
vt 0.43767945857271207 0.7464966900055086
vt 0.4969654374181386 0.734375
vt 0.49774330655752785 0.8074758525679727
vt 0.43767945857271207 0.8119865976845738
vt 0.1333625567298879 0.8524982402066146
vt 0.17818960785327753 0.8859329903751295
vt 0.10410444023503942 0.9239562851664815
vt 0.17018641441182342 0.7195174973205335
vt 0.160032335621277 0.7711066555460306
vt 0.0859385855881766 0.7328250000000001
vt 0.16155625307410618 0.5438045146100771
vt 0.21875 0.5437857625619046
vt 0.1944016263087005 0.625
vt 0.13908530960976556 0.6133681358711026
vt 0.17818960785327753 0.8859329903751295
vt 0.1883552502077197 0.9371573668649568
vt 0.10410444023503942 0.9239562851664815
vt 0.1409227598881828 0.6741597736757836
vt 0.17018641441182342 0.7195174973205335
vt 0.0859385855881766 0.7328250000000001
vt 0.2708188250959785 0.8996874998796924
vt 0.3293375 0.89959375
vt 0.30712308802354193 0.9920482072119305
vt 0.25000047028344796 0.9818772073676869
vt 0.18834749339412887 0.9371689186707834
vt 0.15908456848089975 0.9822145831634426
vt 0.10409945021454377 0.923956435164237
vt 0.0859323355881766 0.65625
vt 0.1409227598881828 0.6741597736757836
vt 0.0859385855881766 0.7328250000000001
vt 0.3208125 0.58870625
vt 0.38301875 0.58870625
vt 0.3745 0.6875
vt 0.3125 0.68343125
vt 0.15908456848089975 0.9822145831634426
vt 0.10409639465734107 1
vt 0.10409927550461347 0.9239562500545692
vt 0.0309448355881766 0.67416875
vt 0.0859323355881766 0.65625
vt 0.0859385855881766 0.7328250000000001
vt 0.007606249999999995 0.52620625
vt 0.0698125 0.52620625
vt 0.078125 0.6209312499999999
vt 0.016124999999999997 0.625
vt 0.10409639465734107 1
vt 0.04910956855981796 0.9822104168620861
vt 0.10409927550461344 0.9239562500545692
vt 0.001688585588176597 0.71953125
vt 0.0309448355881766 0.67416875
vt 0.0859385855881766 0.7328250000000001
vt 0.20190009645655954 0.7120875001751321
vt 0.26041875 0.71219375
vt 0.2812195367649149 0.7943941525307087
vt 0.2240947590879926 0.8045467004122603
vt 0.04910956855981796 0.9822104168620861
vt 0.01985005675741769 0.9371625353009327
vt 0.10409910078065822 0.923956435150999
vt 0.011851085588176602 0.77111875
vt 0.001688585588176597 0.71953125
vt 0.0859385855881766 0.7328250000000001
vt 0.375 0.9187795125622406
vt 0.4321937469258938 0.9187982646104129
vt 0.45466469039023444 0.9883618858714385
vt 0.3993483716421192 1
vt 0.01985005675741769 0.9371625353009327
vt 0.030012556757417694 0.8859375353009328
vt 0.1041000567574177 0.9239562853009328
vt 0.056676085588176606 0.8047875
vt 0.011851085588176602 0.77111875
vt 0.0859385855881766 0.7328250000000001
vt 0.3155305163923163 0.7343772663459204
vt 0.3748169585727121 0.7464966900055086
vt 0.3748169585727121 0.8119988443713193
vt 0.31475669344247215 0.8074720252289436
vt 0.030012556757417694 0.8859375353009328
vt 0.0748375567574177 0.8525000353009328
vt 0.1041000567574177 0.9239562853009328
vt 0.11520108558817661 0.8047875
vt 0.056676085588176606 0.8047875
vt 0.0859385855881766 0.7328250000000001
vt 0.3748169585727121 0.7464966900055086
vt 0.43767945857271207 0.7464966900055086
vt 0.43767945857271207 0.8119966900055084
vt 0.3748169585727121 0.8119966900055084
vt 0.0748375567574177 0.8525000353009328
vt 0.1333625567298879 0.8524982402066146
vt 0.10410224866040145 0.923961637720158
vt 0.4477247281519754 0.625
vt 0.45461069541147636 0.5625
vt 0.53125 0.5625
vt 0.5198567379606905 0.6244064500186068
vt 0.25 0.81876875
vt 0.308 0.8125
vt 0.3293375 0.89959375
vt 0.27081875 0.8996875
vt 0.31293652322849674 0.4993856102507951
vt 0.3750659993915065 0.4969667172658738
vt 0.383018851728039 0.58870625
vt 0.3208125 0.58870625
vt 0.01554693024079248 0.43447135847078966
vt 0.07767690376977805 0.4368840168671546
vt 0.0698126255901475 0.52620625
vt 0.007606249999999995 0.52620625
vt 0.22325 0.625
vt 0.28125 0.63126875
vt 0.26041875 0.71219375
vt 0.2019 0.7120875
vt 0.39909374692589383 0.8387670146104129
vt 0.4556062469258938 0.8458232646104129
vt 0.4321937469258938 0.9187982646104129
vt 0.3750062469258938 0.918779514610413
vt 0.25 0.5483670883000447
vt 0.3125 0.5409895667580229
vt 0.3125 0.6131216418009606
vt 0.2506379660154322 0.625
vt 0.4375 0.5
vt 0.5 0.5
vt 0.5 0.5625
vt 0.4375 0.5625
vt 0.13815 0.47082951256190464
vt 0.1946625 0.46377326256190465
vt 0.21875 0.5437857625619046
vt 0.1615625 0.5438045125619047
vt 0.6195443579205262 0.8125
vt 0.5691587704342159 0.7938809501055538
vt 0.570845733969296 0.7857460370586117
vt 0.625 0.8065771436524956
vt 0.5691587704342159 0.7938809501055538
vt 0.5117525204342159 0.8005372001055538
vt 0.5090900204342159 0.7925497001055538
vt 0.5708462704342159 0.7857434501055538
vt 0.310407240540996 0.5
vt 0.2526073256946054 0.5
vt 0.25 0.4921078252024711
vt 0.312125752480226 0.49175363728879673
vt 0.19672964697170353 0.9756970012426923
vt 0.20468204387826944 0.9225776860262342
vt 0.2125181404417631 0.9206557716914878
vt 0.20465579524511696 0.9781372484351639
vt 0.20468204387826944 0.9225776860262342
vt 0.18222634039334396 0.8754311655946095
vt 0.18773463278656594 0.8698446161029043
vt 0.21246765603480217 0.9206681537116216
vt 0.18222634039334396 0.8754311655946095
vt 0.13322728933930872 0.8484800867283739
vt 0.134881650927954 0.8409215752646984
vt 0.1877118000179397 0.8698677732599427
vt 0.13322728933930872 0.8484800867283739
vt 0.07484036872675268 0.8524979376941366
vt 0.07216699533932391 0.8452393444217533
vt 0.13488118238771013 0.8409237159495576
vt 0.07484036872675268 0.8524979376941366
vt 0.030012556757417694 0.8859375353009328
vt 0.023797677005880258 0.881148514231974
vt 0.07217680886538419 0.8452659895565386
vt 0.030012556757417694 0.8859375353009328
vt 0.014254115269937653 0.9357288274300357
vt 0.006231859558236921 0.9348857401815346
vt 0.02383231593908261 0.881175206072773
vt 0.5052800378120582 0.890625
vt 0.5545944519722967 0.9125956098380874
vt 0.5530701613745982 0.9219724958509794
vt 0.5 0.8977467556703551
vt 0.5072521361923338 0.7429986700581264
vt 0.5072521361923338 0.6904186354531311
vt 0.515625 0.6875
vt 0.5152657010138558 0.7444490490305902
vt 0.5527019488100088 0.666576014549894
vt 0.6024010909217564 0.640625
vt 0.6084648385601937 0.6460754074287934
vt 0.5548675116976586 0.6739464173461891
vt 0.49417694881000884 0.666576014549894
vt 0.5527019488100088 0.666576014549894
vt 0.5548706988100088 0.6739572645498941
vt 0.49200819881000885 0.6739572645498941
vt 0.444463464950543 0.6406519451525727
vt 0.49417694881000884 0.666576014549894
vt 0.4920089640056038 0.6739546602386617
vt 0.43841016143980627 0.646088961744363
vt 0.5029147576423175 0.8125
vt 0.5554969864011862 0.8125
vt 0.5569468227204035 0.8746585199662733
vt 0.5 0.875
vt 0.5704180889913634 0.9751315238733416
vt 0.6197091281346453 0.953125
vt 0.625 0.9602444492565716
vt 0.5719426785560812 0.984504000705623
vt 0.5127180889913634 0.9711377738733415
vt 0.5704180889913634 0.9751315238733416
vt 0.5719430889913634 0.9845065238733416
vt 0.5098930889913634 0.9804752738733415
vt 0.5545944519722967 0.9125956098380874
vt 0.6122944519722968 0.9086268598380874
vt 0.6151132019722968 0.9179643598380874
vt 0.5530694519722967 0.9219768598380874
vn 0.0000010025279092097576 -0.9906370920059425 0.13652161711979846
vn 0.585663035148124 -0.25409228445049914 0.7696985905169725
vn -0.000005252263295915017 0.9737863248845712 0.22746470812021416
vn 0.000004374660220236303 -0.9906379827603974 0.13651515334670009
vn 0.9799423991241484 -0.058358744243067466 0.19054435538525105
vn 0.0000028094884235096428 0.9737898980831977 0.22744941060205537
vn 0.0000042115720985190125 -0.990638123815917 0.13651412976224386
vn 0.8334683165037681 0.154065596535991 -0.5306546497943685
vn 0.000005595304069906402 0.9737858550762395 0.2274667193725931
vn 0.000006814420850853759 -0.9906377907168818 0.1365165468254272
vn 0.3025405230732962 0.2612238278636692 -0.9166413386133033
vn -0.0000056123222954367434 0.9737882616723037 0.22745641647958642
vn -0.0000068144208508795035 -0.9906377907168818 0.13651654682542716
vn -0.30214993542262797 0.26578599147901616 -0.915457930905412
vn 0.000005612322295443226 0.9737882616723037 0.22745641647958648
vn -0.000004211572098509357 -0.990638123815917 0.1365141297622438
vn -0.832354386101956 0.16230840184835113 -0.5299454298569527
vn -0.00000559530406989992 0.9737858550762395 0.2274667193725931
vn -0.000004374660220252393 -0.9906379827603974 0.13651515334670009
vn -0.9796725547825886 -0.06288502927117653 0.19049188565216998
vn -0.000002809488423516124 0.9737898980831977 0.2274494106020553
vn -0.0000010025279092097576 -0.9906370920059426 0.13652161711979846
vn -0.5832658096506462 -0.2687099655656559 0.7665480739642362
vn 0.00000525226329588909 0.9737863248845712 0.22746470812021422
vn 0 -0.9906370363558271 0.13652202093487928
vn 0 -0.3308089799244433 0.94369773699069
vn 0 0.9737868140976907 0.22746261382800834
vn 0.5969051061722219 0.24940847638645536 0.7625612802471127
vn 0.8393956961324248 -0.15228387353049533 -0.5217513652851427
vn 0.3089032909714438 -0.26196320268846335 -0.9143052210636307
vn -0.3086873962525334 -0.26649737758605363 -0.9130669412121918
vn -0.8388276268597684 -0.15971602400073348 -0.5204411629514009
vn -0.9807933446582376 0.06063361499367635 0.18538602915782595
vn -0.5958428062403109 0.2602188164017269 0.7597746493810884
vn 0 0.3240175138118633 0.9460510825231264
vn 0.9809178883019372 0.057039949675302015 0.18586699693680847
vn -0.607135239335079 0.7614507026387928 -0.22711148938005202
vn -0.2349953085413784 0.7941658065889597 -0.5604265131205423
vn 0.23210110577878523 0.8027963394958764 -0.549224101791142
vn 0.5710926038509235 0.7974726241739958 -0.19465521189994653
vn 0.5445493523778708 0.7853723157104613 0.2943744699195725
vn 0.27795073117402486 0.7773831961725972 0.5642860598564368
vn 0 0.7566876496933056 0.653776567950872
vn -0.32411321096808604 0.719429065233795 0.6143064760954298
vn -0.6308398662183117 0.7172198786867001 0.2960349790249424
vn 0.6008658957746612 -0.7454791456675458 -0.28848053429945664
vn 0.7083019226111241 -0.6664591452828154 0.23268131445022525
vn 0.4288238350731666 -0.6156244911486252 0.6611479443900117
vn 0 -0.6265895053309083 0.7793494670615793
vn -0.40315440769477495 -0.6609859188699683 0.6329013656265081
vn -0.6667641439893438 -0.708806772605295 0.23025754145960892
vn -0.5869254883514842 -0.7606688588916152 -0.27731094142839036
vn -0.21992976479907134 -0.7898146623396954 -0.5725589032655575
vn 0.22070468089175851 -0.7876322929189489 -0.5752606496047739
usemtl m_39fdcf9e-d380-4126-d2c2-41f85504f95a
f 41/1/1 42/2/1 40/3/1
f 1/4/2 3/5/2 4/6/2 2/7/2
f 35/8/3 34/9/3 30/10/3
f 39/11/4 41/12/4 40/13/4
f 3/14/5 5/15/5 6/16/5 4/17/5
f 34/18/6 33/19/6 30/20/6
f 38/21/7 39/22/7 40/23/7
f 5/24/8 7/25/8 8/26/8 6/27/8
f 33/28/9 32/29/9 30/30/9
f 47/31/10 38/32/10 40/33/10
f 7/34/11 9/35/11 10/36/11 8/37/11
f 32/38/12 31/39/12 30/40/12
f 46/41/13 47/42/13 40/43/13
f 9/44/14 11/45/14 12/46/14 10/47/14
f 31/48/15 28/49/15 30/50/15
f 45/51/16 46/52/16 40/53/16
f 11/54/17 13/55/17 14/56/17 12/57/17
f 28/58/18 29/59/18 30/60/18
f 44/61/19 45/62/19 40/63/19
f 13/64/20 15/65/20 16/66/20 14/67/20
f 29/68/21 37/69/21 30/70/21
f 43/71/22 44/72/22 40/73/22
f 15/74/23 17/75/23 18/76/23 16/77/23
f 37/78/24 36/79/24 30/80/24
f 42/81/25 43/82/25 40/83/25
f 17/84/26 1/85/26 2/86/26 18/87/26
f 36/88/27 35/89/27 30/90/27
f 20/91/28 19/92/28 3/93/28 1/94/28
f 22/95/29 21/96/29 7/97/29 5/98/29
f 21/99/30 23/100/30 9/101/30 7/102/30
f 23/103/31 24/104/31 11/105/31 9/106/31
f 24/107/32 25/108/32 13/109/32 11/110/32
f 25/111/33 26/112/33 15/113/33 13/114/33
f 26/115/34 27/116/34 17/117/34 15/118/34
f 27/119/35 20/120/35 1/121/35 17/122/35
f 19/123/36 22/124/36 5/125/36 3/126/36
f 29/127/37 28/128/37 12/129/37 14/130/37
f 28/131/38 31/132/38 10/133/38 12/134/38
f 31/135/39 32/136/39 8/137/39 10/138/39
f 32/139/40 33/140/40 6/141/40 8/142/40
f 33/143/41 34/144/41 4/145/41 6/146/41
f 34/147/42 35/148/42 2/149/42 4/150/42
f 35/151/43 36/152/43 18/153/43 2/154/43
f 36/155/44 37/156/44 16/157/44 18/158/44
f 37/159/45 29/160/45 14/161/45 16/162/45
f 39/163/46 38/164/46 21/165/46 22/166/46
f 41/167/47 39/168/47 22/169/47 19/170/47
f 42/171/48 41/172/48 19/173/48 20/174/48
f 43/175/49 42/176/49 20/177/49 27/178/49
f 44/179/50 43/180/50 27/181/50 26/182/50
f 45/183/51 44/184/51 26/185/51 25/186/51
f 46/187/52 45/188/52 25/189/52 24/190/52
f 47/191/53 46/192/53 24/193/53 23/194/53
f 38/195/54 47/196/54 23/197/54 21/198/54