# Made in Blockbench 4.12.6
mtllib fence_1(1).mtl

o cuboid
v 0.49999999999999994 0.25 0.03125
v 0.49999999999999994 0.25 0
v 0.49999999999999994 0 0.03125
v 0.49999999999999994 0 0
v -0.5 0.25 0
v -0.5 0 0.03125
v -0.5 0 0
v 0.53125 0.25 0.03125
v 0.53125 0 0.03125
v 0.53125 0.25 0
v 0.53125 0 0
v -0.5375 0 0.03125
v -0.5375 0 0
v 0.49999999999999994 0.21875 0.03125
v 0.49999999999999994 0.21875 0
v -0.5 0.21875 0.03125
v -0.5 0.21875 0
v 0.49999999999999994 0.125 0.03125
v 0.49999999999999994 0.125 0
v -0.5 0.125 0.03125
v -0.5 0.125 0
v -0.5 0.09375000000000001 0
v 0.49999999999999994 0.09375000000000001 0
v 0.49999999999999994 0.09375000000000001 0.03125
v -0.5 0.09375000000000001 0.03125
v -0.5375 0.29375 0
v -0.5375 0.29375 0.03125
v -0.5 0.29375 0.03125
v -0.5 0.29375 0
v 0.53125 0.2875 0.03125
v 0.53125 0.2875 0
v 0.49999999999999994 0.2875 0
v 0.49999999999999994 0.2875 0.03125
v -0.5 0.25 0.03125
v -0.5375 0.25 0
v -0.5375 0.25 0.03125
vt 1 1
vt 0 1
vt 0 0.5
vt 1 0.5
vt 1 1
vt 1 0
vt 0 0
vt 0 1
vt 0.3125 0.9375
vt 0.3125 1
vt 0.25 1
vt 0.25 0.9375
vt 0.0625 0.75
vt 0.0625 1
vt 0 1
vt 0 0.75
vt 0.3125 0.6875
vt 0.3125 0.75
vt 0.25 0.75
vt 0.25 0.6875
vt 0.5 1
vt 0.5 0.75
vt 0.5625 0.75
vt 0.5625 1
vt 0.25 1
vt 0.25 0.9375
vt 0.3125 0.9375
vt 0.3125 1
vt 0.0625 0.75
vt 0.0625 1
vt 0 1
vt 0 0.75
vt 0.25 0.75
vt 0.25 0.6875
vt 0.3125 0.6875
vt 0.3125 0.75
vt 0 0.4375
vt 0 0.5
vt 1 0.5
vt 1 0.4375
vt 0.5625 0.75
vt 0.5 0.75
vt 0.5 0.6875
vt 0.5625 0.6875
vt 0 0.9375
vt 0 1
vt 1 1
vt 1 0.9375
vt 0.0625 0.75
vt 0 0.75
vt 0 0.6875
vt 0.0625 0.6875
vt 0 0.75
vt 0.0625 0.75
vt 0.0625 1
vt 0 1
vt 0.0625 1
vt 0 1
vt 0 0.75
vt 0.0625 0.75
vt 0 0.9375
vt 1 0.9375
vt 1 1
vt 0 1
vt 1 1
vt 1 0
vt 0 0
vt 0 1
vt 0 0.4375
vt 0 0.5
vt 1 0.5
vt 1 0.4375
vt 0 0.9375
vt 0 1
vt 1 1
vt 1 0.9375
vt 0 0.9375
vt 1 0.9375
vt 1 1
vt 0 1
vt 0.1875 1
vt 0.125 1
vt 0.125 0.9375
vt 0.1875 0.9375
vt 0.15625 1
vt 0.125 1
vt 0.125 0.9375
vt 0.15625 0.9375
vt 0.1875 1
vt 0.125 1
vt 0.125 0.9375
vt 0.1875 0.9375
vt 0.21875 1
vt 0.1875 1
vt 0.1875 0.9375
vt 0.21875 0.9375
vt 0.1875 1
vt 0.125 1
vt 0.125 0.9375
vt 0.1875 0.9375
vt 0.15625 1
vt 0.125 1
vt 0.125 0.9375
vt 0.15625 0.9375
vt 0.5 1
vt 0.5 0.75
vt 0.5625 0.75
vt 0.5625 1
vt 0.21875 1
vt 0.1875 1
vt 0.1875 0.9375
vt 0.21875 0.9375
vt 1 0.5
vt 1 1
vt 0 1
vt 0 0.5
vt 0.1875 1
vt 0.125 1
vt 0.125 0.9375
vt 0.1875 0.9375
vn 1 0 0
vn 0 -1 0
vn 0 1 0
vn 0 0 1
vn 0 -1 0
vn 0 0 -1
vn 0 1 0
vn 0 0 -1
vn 0 -1 0
vn 0 0 1
vn -1 0 0
vn 0 0 -1
vn 1 0 0
vn -1 0 0
vn -1 0 0
vn 0 1 0
vn 0 -1 0
vn 0 0 1
vn 0 0 -1
vn 0 1 0
vn 1 0 0
vn 0 0 -1
vn 1 0 0
vn 0 0 -1
vn -1 0 0
vn 0 0 1
vn 0 0 1
vn 0 0 1
vn -1 0 0
vn -1 0 0
usemtl none
f 10/1/1 8/2/1 9/3/1 11/4/1
f 15/5/2 14/6/2 16/7/2 17/8/2
f 30/9/3 31/10/3 32/11/3 33/12/3
f 9/13/4 8/14/4 1/15/4 3/16/4
f 11/17/5 9/18/5 3/19/5 4/20/5
f 10/21/6 11/22/6 4/23/6 2/24/6
f 26/25/7 27/26/7 28/27/7 29/28/7
f 13/29/8 35/30/8 5/31/8 7/32/8
f 12/33/9 13/34/9 7/35/9 6/36/9
f 34/37/10 16/38/10 14/39/10 1/40/10
f 15/41/11 14/42/11 1/43/11 2/44/11
f 2/45/12 15/46/12 17/47/12 5/48/12
f 16/49/13 17/50/13 5/51/13 34/52/13
f 7/53/14 6/54/14 34/55/14 5/56/14
f 1/57/15 2/58/15 4/59/15 3/60/15
f 34/61/16 1/62/16 2/63/16 5/64/16
f 23/65/17 24/66/17 25/67/17 22/68/17
f 20/69/18 25/70/18 24/71/18 18/72/18
f 19/73/19 23/74/19 22/75/19 21/76/19
f 20/77/20 18/78/20 19/79/20 21/80/20
f 29/81/21 28/82/21 34/83/21 5/84/21
f 26/85/22 29/86/22 5/87/22 35/88/22
f 31/89/23 30/90/23 8/91/23 10/92/23
f 32/93/24 31/94/24 10/95/24 2/96/24
f 33/97/25 32/98/25 2/99/25 1/100/25
f 30/101/26 33/102/26 1/103/26 8/104/26
f 36/105/27 12/106/27 6/107/27 34/108/27
f 28/109/28 27/110/28 36/111/28 34/112/28
f 12/113/29 36/114/29 35/115/29 13/116/29
f 27/117/30 26/118/30 35/119/30 36/120/30