# Made in Blockbench 4.12.6
mtllib potty_1.mtl

o building
v 0.2296292668096978 0.22007538194444443 -0.12457319444444448
v 0.1858792668096978 0.09700038194444444 0.2503974305555555
v 0.1858792668096978 0.22200038194444444 -0.06210256944444448
v 0.17337926680969779 -0.37174961805555556 0.2503974305555555
v 0.17337926680969779 -0.37174961805555556 -0.06210256944444448
v -0.1891207331903022 0.09700038194444444 0.2503974305555555
v -0.1891207331903022 0.22200038194444444 -0.06210256944444448
v -0.1766207331903022 -0.37174961805555556 0.2503974305555555
v -0.1766207331903022 -0.37174961805555556 -0.06210256944444448
v 0.1858792668096978 0.12377975694444443 0.24860930555555552
v 0.1858792668096978 0.24877975694444443 -0.06389069444444448
v -0.1891207331903022 0.12377975694444443 0.24860930555555552
v -0.1891207331903022 0.24877975694444443 -0.06389069444444448
v -0.23287073319030221 0.12377975694444443 0.24860930555555552
v -0.23287073319030221 0.24877975694444443 -0.06389069444444448
v -0.23287073319030221 0.22200038194444444 -0.06210256944444448
v -0.23287073319030221 0.09700038194444444 0.2503974305555555
v 0.1858792668096978 0.12570475694444444 0.3110793055555555
v -0.1891207331903022 0.12570475694444444 0.3110793055555555
v -0.1891207331903022 0.09892538194444445 0.31286743055555555
v 0.1858792668096978 0.09892538194444445 0.31286743055555555
v -0.23287073319030221 0.12570475694444444 0.3110793055555555
v -0.23287073319030221 0.09892538194444445 0.31286743055555555
v -0.1891207331903022 0.24685538194444445 -0.12636131944444448
v 0.1858792668096978 0.24685538194444445 -0.12636131944444448
v 0.1858792668096978 0.22007538194444443 -0.12457319444444448
v -0.1891207331903022 0.22007538194444443 -0.12457319444444448
v -0.23287073319030221 0.22007538194444443 -0.12457319444444448
v -0.23287073319030221 0.24685538194444445 -0.12636131944444448
v 0.2296292668096978 0.24685538194444445 -0.12636131944444448
v 0.2296292668096978 0.24877975694444443 -0.06389069444444448
v 0.2296292668096978 0.22200038194444444 -0.06210256944444448
v 0.2296292668096978 0.12377975694444443 0.24860930555555552
v 0.2296292668096978 0.09700038194444444 0.2503974305555555
v 0.2296292668096978 0.12570475694444444 0.3110793055555555
v 0.2296292668096978 0.09892538194444445 0.31286743055555555
vt 0.1875 1
vt 0 1
vt 0 0.5
vt 0.1875 0.5
vt 0.1875 0.5
vt 0.1875 1
vt 0 1
vt 0 0.5
vt 0 0.8125
vt 0.1875 0.8125
vt 0.1875 1
vt 0 1
vt 0.1875 0.8125
vt 0.1875 1
vt 0 1
vt 0 0.8125
vt 0.1875 0.5
vt 0.1875 1
vt 0 1
vt 0 0.5
vt 0.1875 1
vt 0 1
vt 0 0.5
vt 0.1875 0.5
vt 0.375 0.9375
vt 0 0.9375
vt 0 0.875
vt 0.375 0.875
vt 0.3365725 0.9375
vt 0 0.9375
vt 0 0.874998125
vt 0.3365725 0.874998125
vt 0.375 1
vt 0 1
vt 0 0.9375
vt 0.375 0.9375
vt 0.062501875 0.6634275000000001
vt 0.062501875 1
vt 0 1
vt 0 0.6634275000000001
vt 0 1
vt 0 0.6634249999999999
vt 0.0625 0.6634249999999999
vt 0.0625 1
vt 0.0625 0.94194375
vt 0.0625 1
vt 0 1
vt 0 0.94194375
vt 0.0625 0.6634249999999999
vt 0.0625 1
vt 0 1
vt 0 0.6634249999999999
vt 0 0.875
vt 0 0.81694375
vt 0.0625 0.81694375
vt 0.0625 0.875
vt 0.375 1
vt 0 1
vt 0 0.9375
vt 0.375 0.9375
vt 0.375 1
vt 0 1
vt 0 0.9375
vt 0.375 0.9375
vt 0.245559375 1
vt 0.187500625 1
vt 0.1875 0.937501875
vt 0.24555875 0.937501875
vt 0.062498125 0.87944125
vt 0.062498125 0.9375
vt 0 0.937499375
vt 0 0.879440625
vt 0.0625 0.9375
vt 0 0.9375
vt 0 0.875
vt 0.0625 0.875
vt 0.0625 1
vt 0 1
vt 0 0.9375
vt 0.0625 0.9375
vt 0 0.9375
vt 0.375 0.9375
vt 0.375 1
vt 0 1
vt 0 0.937501875
vt 0.05805875 0.937501875
vt 0.058059375 1
vt 6.25e-7 1
vt 0 0.9375
vt 0.375 0.9375
vt 0.375 1
vt 0 1
vt 0 0.999999375
vt 0 0.941940625
vt 0.062498125 0.94194125
vt 0.062498125 1
vt 0 0.9375
vt 0.0625 0.9375
vt 0.0625 1
vt 0 1
vt 0 0.9375
vt 0.0625 0.9375
vt 0.0625 1
vt 0 1
vt 0 1
vt 0 0.94194375
vt 0.0625 0.94194375
vt 0.0625 1
vt 0 1
vt 0 0.9375
vt 0.0625 0.9375
vt 0.0625 1
vt 0.0625 0.9375
vt 0.0625 1
vt 0 1
vt 0 0.9375
vt 0.125 0.6634249999999999
vt 0.125 1
vt 0.0625 1
vt 0.0625 0.6634249999999999
vt 0.0625 1
vt 0.0625 0.6634249999999999
vt 0.125 0.6634249999999999
vt 0.125 1
vt 0.125 0.94194375
vt 0.125 1
vt 0.0625 1
vt 0.0625 0.94194375
vt 0.125 0.9375
vt 0.125 1
vt 0.0625 1
vt 0.0625 0.9375
vt 0.0625 1
vt 0.0625 0.9375
vt 0.125 0.9375
vt 0.125 1
vn 0.9995878105459091 -0.026655674947890933 -0.010662269979156373
vn -0.9995878105459091 -0.026655674947890933 -0.010662269979156373
vn 0 0.9284766908852594 0.3713906763541038
vn 0 -1 0
vn 0 0 1
vn 0 0 -1
vn 0 0.06662411078018429 0.9977781456129163
vn 1 0 0
vn 0 -0.0666225627874695 -0.9977782489750064
vn -1 0 0
vn 0 0.9284766908852593 0.3713906763541037
vn 0 -0.06662256278746949 -0.9977782489750063
vn 0 -0.9284766908852593 -0.3713906763541037
vn 0 0.06662411078018429 0.9977781456129162
vn 0 0.9995255621753247 -0.030800171397270853
vn 0 -0.9995255621753247 0.030800171397270853
vn 1 0 0
vn -1 0 0
vn 0 -0.9995255621753247 0.03080017139727085
vn 0 0.9995255621753247 -0.03080017139727085
vn 0 0.9995258794630554 -0.03078987306900956
vn 1 0 0
vn 0 -0.9995255716617408 0.03079986354304701
vn -1 0 0
vn 0 0.9995258794630554 -0.03078987306900956
vn 0 -0.9995255716617408 0.03079986354304701
vn 0 -0.06662256278746949 -0.9977782489750063
vn 0 0.9995258794630554 -0.03078987306900956
vn 0 -0.9995255716617408 0.03079986354304701
vn 0 0.9284766908852593 0.3713906763541037
vn 0 -0.9284766908852593 -0.3713906763541037
vn 0 0.06662411078018429 0.9977781456129162
vn 0 -0.9995255621753247 0.03080017139727085
vn 0 0.9995255621753247 -0.03080017139727085
usemtl none
f 3/1/1 2/2/1 4/3/1 5/4/1
f 8/5/2 6/6/2 7/7/2 9/8/2
f 12/9/3 10/10/3 11/11/3 13/12/3
f 5/13/4 4/14/4 8/15/4 9/16/4
f 4/17/5 2/18/5 6/19/5 8/20/5
f 7/21/6 3/22/6 5/23/6 9/24/6
f 18/25/7 19/26/7 20/27/7 21/28/7
f 31/29/8 33/30/8 34/31/8 32/32/8
f 24/33/9 25/34/9 26/35/9 27/36/9
f 14/37/10 15/38/10 16/39/10 17/40/10
f 15/41/11 14/42/11 12/43/11 13/44/11
f 28/45/12 29/46/12 24/47/12 27/48/12
f 17/49/13 16/50/13 7/51/13 6/52/13
f 22/53/14 23/54/14 20/55/14 19/56/14
f 19/57/15 18/58/15 10/59/15 12/60/15
f 21/61/16 20/62/16 6/63/16 2/64/16
f 35/65/17 36/66/17 34/67/17 33/68/17
f 23/69/18 22/70/18 14/71/18 17/72/18
f 20/73/19 23/74/19 17/75/19 6/76/19
f 22/77/20 19/78/20 12/79/20 14/80/20
f 25/81/21 24/82/21 13/83/21 11/84/21
f 1/85/22 30/86/22 31/87/22 32/88/22
f 27/89/23 26/90/23 3/91/23 7/92/23
f 29/93/24 28/94/24 16/95/24 15/96/24
f 24/97/25 29/98/25 15/99/25 13/100/25
f 28/101/26 27/102/26 7/103/26 16/104/26
f 30/105/27 1/106/27 26/107/27 25/108/27
f 31/109/28 30/110/28 25/111/28 11/112/28
f 1/113/29 32/114/29 3/115/29 26/116/29
f 33/117/30 31/118/30 11/119/30 10/120/30
f 32/121/31 34/122/31 2/123/31 3/124/31
f 36/125/32 35/126/32 18/127/32 21/128/32
f 34/129/33 36/130/33 21/131/33 2/132/33
f 35/133/34 33/134/34 10/135/34 18/136/34
o front door
v 0.12962926680969777 0.1376253819444444 -0.049602569444444466
v 0.12962926680969777 0.1376253819444444 -0.08085256944444447
v 0.12962926680969777 -0.3623746180555556 -0.049602569444444466
v 0.12962926680969777 -0.3623746180555556 -0.08085256944444447
v -0.12037073319030223 0.1376253819444444 -0.049602569444444466
v -0.12037073319030223 0.1376253819444444 -0.08085256944444447
v -0.12037073319030223 -0.3623746180555556 -0.049602569444444466
v -0.12037073319030223 -0.3623746180555556 -0.08085256944444447
vt 0.5 1
vt 0 1
vt 0 0.5
vt 0.5 0.5
vt 0.5 0.5
vt 0.5 1
vt 0 1
vt 0 0.5
vt 0 0.5
vt 0.5 0.5
vt 0.5 1
vt 0 1
vt 0.5 0.5
vt 0.5 1
vt 0 1
vt 0 0.5
vt 0.5 0.5
vt 0.5 1
vt 0 1
vt 0 0.5
vt 0.5 1
vt 0 1
vt 0 0.5
vt 0.5 0.5
vn 1 0 0
vn -1 0 0
vn 0 1 0
vn 0 -1 0
vn 0 0 1
vn 0 0 -1
usemtl none
f 38/137/35 37/138/35 39/139/35 40/140/35
f 43/141/36 41/142/36 42/143/36 44/144/36
f 41/145/37 37/146/37 38/147/37 42/148/37
f 40/149/38 39/150/38 43/151/38 44/152/38
f 39/153/39 37/154/39 41/155/39 43/156/39
f 42/157/40 38/158/40 40/159/40 44/160/40
o decoration
v 0.025951985592201878 0.023438962219033955 -0.08710256944444447
v 0.025951985592201878 0.023438962219033955 -0.09960256944444448
v 0.020620201818226675 -0.01998493191527388 -0.08710256944444447
v 0.020620201818226675 -0.01998493191527388 -0.09960256944444448
v -0.004110996658324213 0.027130232294096612 -0.08710256944444447
v -0.004110996658324213 0.027130232294096612 -0.09960256944444448
v -0.009442780432299416 -0.01629366184021122 -0.08710256944444447
v -0.009442780432299416 -0.01629366184021122 -0.09960256944444448
v 0.002850138699891208 0.048314789777664756 -0.08710256944444447
v 0.002850138699891208 0.048314789777664756 -0.09960256944444448
v -0.02721284355063488 0.05200605985272742 -0.08710256944444447
v -0.02721284355063488 0.05200605985272742 -0.09960256944444448
v -0.007813428848059197 -0.03853299849095091 -0.08710256944444447
v -0.037876411098585284 -0.03484172841588825 -0.08710256944444447
v -0.007813428848059197 -0.03853299849095091 -0.09960256944444448
v -0.037876411098585284 -0.03484172841588825 -0.09960256944444448
vt 0.1875 1
vt 0 1
vt 0 0.5
vt 0.1875 0.5
vt 0.1875 0.5
vt 0.1875 1
vt 0 1
vt 0 0.5
vt 0 0.8125
vt 0.1875 0.8125
vt 0.1875 1
vt 0 1
vt 0.1875 0.8125
vt 0.1875 1
vt 0 1
vt 0 0.8125
vt 0.1875 0.5
vt 0.1875 1
vt 0 1
vt 0 0.5
vt 0.1875 1
vt 0 1
vt 0 0.5
vt 0.1875 0.5
vt 0.125 0.875
vt 0.0625 0.875
vt 0.0625 0.8125
vt 0.125 0.8125
vt 0.1875 0.9375
vt 0.125 0.9375
vt 0.125 0.875
vt 0.1875 0.875
vt 0.125 1
vt 0.0625 1
vt 0.0625 0.9375
vt 0.125 0.9375
vt 0.0625 0.9375
vt 0 0.9375
vt 0 0.875
vt 0.0625 0.875
vt 0.125 0.875
vt 0.1875 0.875
vt 0.1875 0.9375
vt 0.125 0.9375
vt 0.0625 0.9375
vt 0.125 0.9375
vt 0.125 1
vt 0.0625 1
vt 0 0.875
vt 0.0625 0.875
vt 0.0625 0.9375
vt 0 0.9375
vt 0.0625 0.8125
vt 0.125 0.8125
vt 0.125 0.875
vt 0.0625 0.875
vn 0.992546151641322 -0.12186934340514746 0
vn -0.992546151641322 0.12186934340514746 0
vn 0.12186934340514746 0.992546151641322 0
vn -0.12186934340514746 -0.992546151641322 0
vn 0 0 1
vn 0 0 -1
vn 0 0 1
vn 0.732751421939215 0.6804964023755442 0
vn 0 0 -1
vn -0.732751421939215 -0.6804964023755442 0
vn 0.546358593518834 -0.8375513639700682 0
vn 0 0 1
vn -0.546358593518834 0.8375513639700682 0
vn 0 0 -1
usemtl none
f 46/161/41 45/162/41 47/163/41 48/164/41
f 51/165/42 49/166/42 50/167/42 52/168/42
f 55/169/43 53/170/43 54/171/43 56/172/43
f 59/173/44 57/174/44 58/175/44 60/176/44
f 47/177/45 45/178/45 49/179/45 51/180/45
f 50/181/46 46/182/46 48/183/46 52/184/46
f 53/185/47 55/186/47 49/187/47 45/188/47
f 54/189/48 53/190/48 45/191/48 46/192/48
f 56/193/49 54/194/49 46/195/49 50/196/49
f 55/197/50 56/198/50 50/199/50 49/200/50
f 57/201/51 59/202/51 48/203/51 47/204/51
f 58/205/52 57/206/52 47/207/52 51/208/52
f 60/209/53 58/210/53 51/211/53 52/212/53
f 59/213/54 60/214/54 52/215/54 48/216/54