# Made in Blockbench 4.12.6
mtllib Tombstone 1.mtl

o beveled_cuboid
v 0.234375 1.5 0.375
v 0.234375 1.5 -0.375
v -0.234375 1.5 0.375
v -0.234375 1.5 -0.375
v -0.25 0.3125 0.328125
v -0.3125 1.3125 0.375
v -0.25 0.3125 -0.328125
v -0.3125 1.3125 -0.375
v 0.25 0.3125 0.328125
v 0.3125 1.3125 0.375
v 0.25 0.3125 -0.328125
v 0.3125 1.3125 -0.375
v 0.1875 0.3125 -0.4375
v 0.234375 1.3125 -0.5
v -0.1875 0.3125 -0.4375
v -0.234375 1.3125 -0.5
v 0.1875 0.3125 0.4375
v 0.234375 1.3125 0.5
v -0.1875 0.3125 0.4375
v -0.234375 1.3125 0.5
vt 0.4921875 0.68915078125
vt 0.3046875 0.68915078125
vt 0.31640625 0.43866328125
vt 0.48046875 0.43866328125
vt 0.21484390625 0.68866765625
vt 0.22656265625 0.93915515625
vt 0.03906265625 0.93915515625
vt 0.05078140625 0.68866765625
vt 0.40625 0.8125
vt 0.40625 1
vt 0.28125 1
vt 0.28125 0.8125
vt 0.6288678125 0.203125
vt 0.6522796875 0.45279125
vt 0.5352203125 0.45826765625
vt 0.5352203125 0.20750625
vt 0.3710296875 0.40591625
vt 0.2539703125 0.41139265625
vt 0.2539703125 0.16063125
vt 0.3476178125 0.15625
vt 0.4921875 0.73993203125
vt 0.3046875 0.73993203125
vt 0.3046875 0.68915078125
vt 0.4921875 0.68915078125
vt 0.22656265625 0.93915515625
vt 0.22656265625 0.98993640625
vt 0.03906265625 0.98993640625
vt 0.03906265625 0.93915515625
vt 0.515625 0.359375
vt 0.515625 0.421875
vt 0.390625 0.421875
vt 0.390625 0.359375
vt 0.515625 0.34375
vt 0.390625 0.34375
vt 0.390625 0.28125
vt 0.515625 0.28125
vt 0.48046890625 0.43866765625000004
vt 0.51194109375 0.4375
vt 0.52898015625 0.6876825
vt 0.4921875 0.68915078125
vt 0.26789484375 0.6876825
vt 0.28493390625 0.4375
vt 0.31640609375 0.43866765625000004
vt 0.3046875 0.68915078125
vt 0.00226984375 0.937686875
vt 0.0193090625 0.6875043750000001
vt 0.05078109375 0.6886721874999999
vt 0.03906265625 0.93915515625
vt 0.21484390625 0.68866765625
vt 0.2463159375 0.6875
vt 0.26335515625 0.9376825
vt 0.22656234375 0.93915078125
vt 0.3046875 0.73993203125
vt 0.2686096875 0.69666203125
vt 0.3046875 0.68915015625
vt 0.23885859375 0.98841515625
vt 0.2265328125 0.939151875
vt 0.26335515625 0.9376825
vt 0.4921875 0.73993203125
vt 0.4921875 0.68915015625
vt 0.5282653125 0.69666203125
vt 0.02676640625 0.9884196875
vt 0.00226984375 0.937686875
vt 0.0390921875 0.93915640625
vn 0.9980525784828888 -0.06237828615518055 0
vn -0.9980525784828888 -0.06237828615518055 0
vn 0 1 0
vn 0 -0.06237828615518054 0.9980525784828886
vn 0 -0.06237828615518054 -0.9980525784828886
vn 0.9230769230769231 0.38461538461538464 0
vn -0.9230769230769231 0.38461538461538464 0
vn 0 0.5547001962252291 0.8320502943378437
vn 0 0.5547001962252291 -0.8320502943378437
vn 0.8660194708050589 -0.07152392950845353 -0.4948682690314622
vn 0.8660194708050589 -0.07152392950845353 0.4948682690314622
vn -0.8660194708050589 -0.07152392950845353 -0.4948682690314622
vn -0.8660194708050589 -0.07152392950845353 0.4948682690314622
vn 0.7995559255833237 0.3331483023263848 0.4997224534895773
vn -0.7995559255833237 0.3331483023263848 0.4997224534895773
vn 0.7995559255833237 0.3331483023263848 -0.4997224534895773
vn -0.7995559255833237 0.3331483023263848 -0.4997224534895773
usemtl m_68c61b22-fec6-01db-5de8-01378900682f
f 12/1/1 10/2/1 9/3/1 11/4/1
f 5/5/2 6/6/2 8/7/2 7/8/2
f 1/9/3 2/10/3 4/11/3 3/12/3
f 17/13/4 18/14/4 20/15/4 19/16/4
f 16/17/5 14/18/5 13/19/5 15/20/5
f 2/21/6 1/22/6 10/23/6 12/24/6
f 6/25/7 3/26/7 4/27/7 8/28/7
f 18/29/8 1/30/8 3/31/8 20/32/8
f 4/33/9 2/34/9 14/35/9 16/36/9
f 11/37/10 13/38/10 14/39/10 12/40/10
f 18/41/11 17/42/11 9/43/11 10/44/11
f 16/45/12 15/46/12 7/47/12 8/48/12
f 5/49/13 19/50/13 20/51/13 6/52/13
f 1/53/14 18/54/14 10/55/14
f 3/56/15 6/57/15 20/58/15
f 2/59/16 12/60/16 14/61/16
f 4/62/17 16/63/17 8/64/17
o cuboid
v 0.46875 0.5 0.53125
v 0.46875 0.5 -0.53125
v 0.46875 0.265625 0.53125
v 0.46875 0.265625 -0.53125
v -0.453125 0.5 0.53125
v -0.453125 0.5 -0.53125
v -0.453125 0.265625 0.53125
v -0.453125 0.265625 -0.53125
vt 0.8125 0.71875
vt 0.546875 0.71875
vt 0.546875 0.65625
vt 0.8125 0.65625
vt 0.8125 0.578125
vt 0.8125 0.640625
vt 0.546875 0.640625
vt 0.546875 0.578125
vt 0 0.40625
vt 0.234375 0.40625
vt 0.234375 0.671875
vt 0 0.671875
vt 0.765625 0.734375
vt 0.765625 1
vt 0.53125 1
vt 0.53125 0.734375
vt 0.78125 0.5
vt 0.78125 0.5625
vt 0.546875 0.5625
vt 0.546875 0.5
vt 0.234375 0.390625
vt 0 0.390625
vt 0 0.328125
vt 0.234375 0.328125
vn 1 0 0
vn -1 0 0
vn 0 1 0
vn 0 -1 0
vn 0 0 1
vn 0 0 -1
usemtl m_68c61b22-fec6-01db-5de8-01378900682f
f 22/65/18 21/66/18 23/67/18 24/68/18
f 27/69/19 25/70/19 26/71/19 28/72/19
f 25/73/20 21/74/20 22/75/20 26/76/20
f 24/77/21 23/78/21 27/79/21 28/80/21
f 23/81/22 21/82/22 25/83/22 27/84/22
f 26/85/23 22/86/23 24/87/23 28/88/23